<?xml version="1.0" encoding="utf-8"?>
<!-- Generator: Adobe Illustrator 18.0.0, SVG Export Plug-In . SVG Version: 6.00 Build 0)  -->
<!DOCTYPE svg PUBLIC "-//W3C//DTD SVG 1.1//EN" "http://www.w3.org/Graphics/SVG/1.1/DTD/svg11.dtd">
<svg version="1.1" id="Layer_1" xmlns="http://www.w3.org/2000/svg" xmlns:xlink="http://www.w3.org/1999/xlink" x="0px" y="0px"
	 viewBox="0 0 483.2 123.7" enable-background="new 0 0 483.2 123.7" xml:space="preserve">
<path d="M340.3,81.7c-5,5.1-12,8.2-19.7,8.2c-15.4,0-28-12.5-28-28c0-15.5,12.5-28,28-28c8.4,0,15.9,3.7,21.1,9.6l26.7-21
	C357,8.8,339.8,0,320.6,0c-34.2,0-61.8,27.7-61.8,61.9c0,34.1,27.7,61.9,61.8,61.9c18.5,0,35.1-8.2,46.5-21.1L340.3,81.7z
	 M449.6,120.8V73.9h-37v46.9h-33.6V1.9h33.6v43.3h37V1.9h33.6v118.9H449.6z M224.9,30.6v90.2h-32.9V30.6h-33.3V1.9h99.6v28.7H224.9z
	 M109.6,1.9h33.6v118.9h-33.6V1.9z M32.8,29.9v16.5H70v27.9H32.8v46.6H0V1.9h94.1v28H32.8z"/>
</svg>
