<?xml version="1.0" encoding="utf-8"?>
<!-- Generator: Adobe Illustrator 18.0.0, SVG Export Plug-In . SVG Version: 6.00 Build 0)  -->
<!DOCTYPE svg PUBLIC "-//W3C//DTD SVG 1.1//EN" "http://www.w3.org/Graphics/SVG/1.1/DTD/svg11.dtd">
<svg version="1.1" id="Layer_1" xmlns="http://www.w3.org/2000/svg" xmlns:xlink="http://www.w3.org/1999/xlink" x="0px" y="0px"
	 viewBox="0 0 155 155" enable-background="new 0 0 155 155" xml:space="preserve">
<g>
	<path d="M108.1,18.5c-24.7-24.7-64.8-24.7-89.6,0c-24.7,24.7-24.7,64.8,0,89.6c24.7,24.7,64.8,24.7,89.6,0
		C132.8,83.4,132.8,43.3,108.1,18.5z M95.9,95.9c-18,18-47.1,18-65.1,0c-18-18-18-47.1,0-65.1c18-18,47.1-18,65.1,0
		C113.8,48.8,113.8,77.9,95.9,95.9z"/>
	<rect x="107" y="90.3" transform="matrix(0.7071 -0.7071 0.7071 0.7071 -50.52 121.9658)" width="30" height="63.3"/>
</g>
</svg>
