<?xml version="1.0" encoding="utf-8"?>
<!-- Generator: Adobe Illustrator 16.0.0, SVG Export Plug-In . SVG Version: 6.00 Build 0)  -->
<!DOCTYPE svg PUBLIC "-//W3C//DTD SVG 1.1//EN" "http://www.w3.org/Graphics/SVG/1.1/DTD/svg11.dtd">
<svg version="1.1" id="Layer_1" xmlns="http://www.w3.org/2000/svg" xmlns:xlink="http://www.w3.org/1999/xlink" x="0px" y="0px"
	 width="44px" height="44px" viewBox="0 0 44 44" enable-background="new 0 0 44 44" xml:space="preserve">
<path fill="#010101" d="M16.9,14.122c0,1.385-1.113,2.507-2.488,2.507c-1.374,0-2.487-1.123-2.487-2.507s1.114-2.508,2.487-2.508
	C15.787,11.614,16.9,12.737,16.9,14.122 M16.537,18.41H12.33V32h4.207V18.41z M23.26,18.41h-4.034V32h4.034v-7.134
	c0-1.913,0.881-3.049,2.564-3.049c1.547,0,2.29,1.093,2.29,3.049V32h4.187v-8.605c0-3.64-2.063-5.4-4.944-5.4
	c-2.883,0-4.097,2.245-4.097,2.245V18.41L23.26,18.41z"/>
</svg>
