<?xml version="1.0" encoding="utf-8"?>
<!-- Generator: Adobe Illustrator 16.0.0, SVG Export Plug-In . SVG Version: 6.00 Build 0)  -->
<!DOCTYPE svg PUBLIC "-//W3C//DTD SVG 1.1//EN" "http://www.w3.org/Graphics/SVG/1.1/DTD/svg11.dtd">
<svg version="1.1" id="Layer_1" xmlns="http://www.w3.org/2000/svg" xmlns:xlink="http://www.w3.org/1999/xlink" x="0px" y="0px"
	 width="44px" height="44px" viewBox="0 0 44 44" enable-background="new 0 0 44 44" xml:space="preserve">
<path fill="#010101" d="M32.22,16.264h-2.702v2.704h-1.352v-2.704h-2.704v-1.352h2.704v-2.704h1.352v2.704h2.702V16.264z
	 M24.578,27.445c0,2.026-1.851,4.493-6.505,4.493c-3.405,0-6.244-1.469-6.244-3.938c0-1.906,1.207-4.381,6.846-4.381
	c-0.837-0.683-1.043-1.637-0.532-2.67c-3.302,0-4.993-1.941-4.993-4.406c0-2.412,1.794-4.604,5.452-4.604h5.86l-1.31,1.375h-1.539
	c1.085,0.622,1.663,1.902,1.663,3.313c0,1.296-0.713,2.345-1.731,3.132c-1.806,1.397-1.344,2.177,0.55,3.557
	C23.961,24.713,24.578,25.793,24.578,27.445 M20.923,16.714c-0.273-2.074-1.624-3.775-3.203-3.823
	c-1.58-0.047-2.639,1.541-2.366,3.614c0.273,2.075,1.774,3.523,3.354,3.571C20.286,20.123,21.195,18.788,20.923,16.714
	 M22.551,27.653c0-1.706-1.556-3.332-4.167-3.332c-2.354-0.026-4.348,1.486-4.348,3.24c0,1.789,1.7,3.279,4.054,3.279
	C21.098,30.841,22.551,29.442,22.551,27.653"/>
</svg>
