<?xml version="1.0" encoding="utf-8"?>
<!-- Generator: Adobe Illustrator 16.0.0, SVG Export Plug-In . SVG Version: 6.00 Build 0)  -->
<!DOCTYPE svg PUBLIC "-//W3C//DTD SVG 1.1//EN" "http://www.w3.org/Graphics/SVG/1.1/DTD/svg11.dtd">
<svg version="1.1" id="Layer_1" xmlns="http://www.w3.org/2000/svg" xmlns:xlink="http://www.w3.org/1999/xlink" x="0px" y="0px"
	 width="44px" height="44px" viewBox="0 0 44 44" enable-background="new 0 0 44 44" xml:space="preserve">
<path fill="#010101" d="M33.531,14.647c-0.868,0.385-1.801,0.645-2.78,0.762c1-0.599,1.767-1.548,2.128-2.679
	c-0.936,0.555-1.971,0.958-3.074,1.175c-0.883-0.941-2.141-1.529-3.533-1.529c-3.123,0-5.421,2.916-4.715,5.944
	c-4.023-0.203-7.59-2.129-9.978-5.059c-1.268,2.175-0.658,5.021,1.498,6.464c-0.793-0.026-1.539-0.244-2.191-0.606
	c-0.053,2.243,1.554,4.341,3.882,4.81c-0.681,0.184-1.427,0.227-2.186,0.08c0.616,1.925,2.403,3.323,4.522,3.362
	c-2.035,1.595-4.599,2.308-7.167,2.005c2.142,1.372,4.687,2.175,7.421,2.175c8.986,0,14.064-7.59,13.758-14.399
	C32.063,16.47,32.882,15.618,33.531,14.647"/>
</svg>
