<?xml version="1.0" encoding="utf-8"?>
<!-- Generator: Adobe Illustrator 18.0.0, SVG Export Plug-In . SVG Version: 6.00 Build 0)  -->
<!DOCTYPE svg PUBLIC "-//W3C//DTD SVG 1.1//EN" "http://www.w3.org/Graphics/SVG/1.1/DTD/svg11.dtd">
<svg version="1.1" id="Layer_1" xmlns="http://www.w3.org/2000/svg" xmlns:xlink="http://www.w3.org/1999/xlink" x="0px" y="0px"
	 viewBox="0 0 496.8 137" enable-background="new 0 0 496.8 137" xml:space="preserve">
<path fill="#FFFFFF" d="M346.1,90.5c-5,5.1-12,8.2-19.7,8.2c-15.4,0-28-12.5-28-28c0-15.5,12.5-28,28-28c8.4,0,15.9,3.7,21.1,9.6
	l26.7-21c-11.4-13.8-28.5-22.5-47.8-22.5c-34.2,0-61.8,27.7-61.8,61.9c0,34.1,27.7,61.9,61.8,61.9c18.5,0,35.1-8.2,46.5-21.1
	L346.1,90.5z M455.4,129.6V82.7h-37v46.9h-33.6V10.7h33.6V54h37V10.7H489v118.9H455.4z M230.7,39.4v90.2h-32.9V39.4h-33.3V10.7H264
	v28.7H230.7z M115.4,10.7H149v118.9h-33.6V10.7z M38.6,38.7v16.5h37.2v27.9H38.6v46.6H5.8V10.7h94.1v28H38.6z"/>
</svg>
