<?xml version="1.0" encoding="utf-8"?>
<!-- Generator: Adobe Illustrator 16.0.0, SVG Export Plug-In . SVG Version: 6.00 Build 0)  -->
<!DOCTYPE svg PUBLIC "-//W3C//DTD SVG 1.1//EN" "http://www.w3.org/Graphics/SVG/1.1/DTD/svg11.dtd">
<svg version="1.1" id="Layer_1" xmlns="http://www.w3.org/2000/svg" xmlns:xlink="http://www.w3.org/1999/xlink" x="0px" y="0px"
	 width="44px" height="44px" viewBox="0 0 44 44" enable-background="new 0 0 44 44" xml:space="preserve">
<polygon fill="#FFFFFF" points="37.774,11.747 33.571,11.747 33.571,7.545 31.47,7.545 31.47,11.747 27.268,11.747 27.268,13.849 
	31.47,13.849 31.47,18.051 33.571,18.051 33.571,13.849 37.774,13.849 "/>
<path fill="#FFFFFF" d="M22.034,24.811c-2.943-2.146-3.662-3.358-0.853-5.53c1.582-1.224,2.691-2.855,2.691-4.869
	c0-2.193-0.897-4.185-2.584-5.151h2.392l2.034-2.136h-9.108c-5.687,0-8.475,3.408-8.475,7.157c0,3.832,2.628,6.85,7.761,6.85
	c-0.795,1.606-0.477,3.091,0.826,4.151c-8.767,0-10.643,3.847-10.643,6.811c0,3.839,4.414,6.122,9.707,6.122
	c7.236,0.001,10.111-3.835,10.111-6.985C25.893,28.663,24.936,26.984,22.034,24.811z M11.557,14.226
	c-0.424-3.226,1.222-5.693,3.677-5.62c2.454,0.074,4.556,2.719,4.979,5.944c0.422,3.224-0.99,5.299-3.445,5.227
	C14.313,19.702,11.979,17.449,11.557,14.226z M15.807,36.509c-3.659,0-6.3-2.315-6.3-5.097c0-2.727,3.1-5.078,6.758-5.037
	c4.059,0,6.478,2.527,6.478,5.179C22.743,34.336,20.483,36.509,15.807,36.509z"/>
</svg>
