<?xml version="1.0" encoding="utf-8"?>
<!-- Generator: Adobe Illustrator 16.0.0, SVG Export Plug-In . SVG Version: 6.00 Build 0)  -->
<!DOCTYPE svg PUBLIC "-//W3C//DTD SVG 1.1//EN" "http://www.w3.org/Graphics/SVG/1.1/DTD/svg11.dtd">
<svg version="1.1" id="Layer_1" xmlns="http://www.w3.org/2000/svg" xmlns:xlink="http://www.w3.org/1999/xlink" x="0px" y="0px"
	 width="44px" height="44px" viewBox="0 0 44 44" enable-background="new 0 0 44 44" xml:space="preserve">
<rect x="7.976" y="17.026" fill="#FFFFFF" width="6.052" height="19.553"/>
<path fill="#FFFFFF" d="M10.974,14.466c-1.977,0-3.579-1.615-3.579-3.609c0-1.992,1.602-3.607,3.579-3.607
	c1.975,0,3.579,1.615,3.579,3.607C14.553,12.851,12.949,14.466,10.974,14.466"/>
<path fill="#FFFFFF" d="M36.709,36.579h-6.021V26.315c0-2.814-1.069-4.386-3.296-4.386c-2.423,0-3.688,1.636-3.688,4.386v10.264
	h-5.805V17.026h5.805v2.634c0,0,1.746-3.23,5.891-3.23c4.147,0,7.114,2.531,7.114,7.768V36.579z"/>
</svg>
