<?xml version="1.0" encoding="utf-8"?>
<!-- Generator: Adobe Illustrator 16.0.0, SVG Export Plug-In . SVG Version: 6.00 Build 0)  -->
<!DOCTYPE svg PUBLIC "-//W3C//DTD SVG 1.1//EN" "http://www.w3.org/Graphics/SVG/1.1/DTD/svg11.dtd">
<svg version="1.1" id="Layer_1" xmlns="http://www.w3.org/2000/svg" xmlns:xlink="http://www.w3.org/1999/xlink" x="0px" y="0px"
	 width="45px" height="45px" viewBox="0 0 45 45" enable-background="new 0 0 45 45" xml:space="preserve">
<path fill="#BFD600" d="M38.645,43.705c-2.81,1.309-9.365,5.136-19.93-15.906C8.237,6.936,15.244,3.691,17.826,2.318
	c0.063-0.031,3.777-1.899,3.781-1.902l6.268,12.476l-3.738,1.877c-3.93,2.148,4.254,18.448,8.271,16.459
	c0.163-0.073,3.692-1.844,3.706-1.85l6.317,12.436C42.418,41.821,38.86,43.604,38.645,43.705 M24.215,42.381l-1.984-2.556
	c-2.744,2.133-6.687,2.342-7.86,0.32c-0.868-1.497-0.575-3.198-0.234-5.169c0.372-2.15,0.793-4.587-0.545-6.868
	c-2.258-3.841-7.214-3.669-10.933-1.239l1.771,2.708c1.536-1.005,3.304-1.437,4.614-1.129c3.063,0.718,2.132,4.676,1.909,5.978
	c-0.393,2.264-0.834,4.831,0.625,7.345C13.871,45.729,20.038,45.626,24.215,42.381"/>
</svg>
