<?xml version="1.0" encoding="utf-8"?>
<!-- Generator: Adobe Illustrator 16.0.0, SVG Export Plug-In . SVG Version: 6.00 Build 0)  -->
<!DOCTYPE svg PUBLIC "-//W3C//DTD SVG 1.1//EN" "http://www.w3.org/Graphics/SVG/1.1/DTD/svg11.dtd">
<svg version="1.1" id="Layer_1" xmlns="http://www.w3.org/2000/svg" xmlns:xlink="http://www.w3.org/1999/xlink" x="0px" y="0px"
	 width="44px" height="44px" viewBox="0 0 44 44" enable-background="new 0 0 44 44" xml:space="preserve">
<path fill="#FFFFFF" d="M34.354,16.271c0.38,8.454-5.925,17.881-17.085,17.881c-3.394,0-6.553-0.996-9.214-2.702
	c3.188,0.378,6.373-0.509,8.899-2.488c-2.629-0.048-4.85-1.786-5.615-4.175c0.943,0.182,1.868,0.129,2.715-0.103
	c-2.891-0.581-4.886-3.185-4.821-5.97c0.81,0.451,1.737,0.721,2.724,0.753c-2.677-1.789-3.436-5.324-1.862-8.025
	c2.964,3.636,7.395,6.029,12.39,6.28c-0.877-3.76,1.976-7.38,5.855-7.38c1.729,0,3.291,0.73,4.388,1.898
	c1.369-0.27,2.655-0.77,3.816-1.459c-0.449,1.404-1.401,2.582-2.644,3.326c1.216-0.146,2.374-0.469,3.453-0.947
	C36.548,14.365,35.529,15.423,34.354,16.271"/>
</svg>
