<?xml version="1.0" encoding="utf-8"?>
<!-- Generator: Adobe Illustrator 18.0.0, SVG Export Plug-In . SVG Version: 6.00 Build 0)  -->
<!DOCTYPE svg PUBLIC "-//W3C//DTD SVG 1.1//EN" "http://www.w3.org/Graphics/SVG/1.1/DTD/svg11.dtd">
<svg version="1.1" id="Maps" xmlns="http://www.w3.org/2000/svg" xmlns:xlink="http://www.w3.org/1999/xlink" x="0px" y="0px"
	 viewBox="0 269 612 311" enable-background="new 0 269 612 311" xml:space="preserve">
<path fill="#1A2129" d="M276.1,457.2l0.6,0.4l0.2,0.3l0.7,0.3l0.5,0.3l0.2,0.1v0.3l0.3,0.1l0.3,0.4h0.5l1.6,1.6h0.3l0.4,0.4l0.6,0.2
	h0.2l0.1,0.2l0.6,0.1l0.2,0.1h0.3l0.6-0.5l1.4-0.4h0.5l1.8-0.3l0.8,0.3h0.4l1.5,0.4l0.8-0.5l1.1-0.2l1.1-0.7h0.8l0.1,0.1l0.7-0.6
	l4.1-0.3l1.3,1.4l0.1,0.7l0.7,0.7l0.2-0.1l0.2,0.3l0.3-0.2l0.5,0.1l0.3-0.3l0.4,0.2h0.9l0.2-0.5l0.3,0.5h0.3l0.2,0.5l0.6,0.3
	l0.4-0.1l-0.2,0.5l0.5,0.5l-0.3,1.8l-0.5,0.9l0.4,0.5l-0.2,0.8l-0.3,0.1v0.8l-0.7,0.5l0.7,1.6l0.9,1.3l1.3,1.2l0.1,0.4l1.2,1.1
	l0.1,0.5l0.2,0.2l0.1,0.8l0.3,0.1v0.6l0.6,1.1l0.6,2l-0.3,0.8l0.3,1.3l0.3,0.6l0.2,0.1l0.2,0.5l-0.2,0.2l-0.1,1.3l-0.7,1.1l-0.4,0.1
	v0.4l-0.4,0.4l-0.8,3.4l-0.3,0.4v2.6l0.2,0.7l0.5,0.7l2.2,4.4l0.7,1.1v2.5l0.6,1.3l-0.1,0.7l0.6,2.8l0.5,0.7l0.1,0.4l0.8,0.8
	l0.2,0.1v0.3l0.3,0.2l1.4,3.4l0.7,1.2l0.1,1.2l-0.3,0.5l-0.3-0.2l-0.1,0.4l0.2,0.2v0.2l0.5,0.9l-0.2,0.6l0.2,0.4V519h0.3v0.4h0.6
	v0.4l1.1,0.1l0.4-0.4l0.6-0.1l0.5,0.1l0.1-0.2l0.7,0.1l0.5-0.6h0.8l0.5,0.2l0.5-0.3l1.7,0.4l0.3-0.4l0.9,0.2l0.1-0.6l1.5-0.1
	l2.8-2.3l0.6-0.9l0.9-0.8l1.3-2.1l0.5-1.3l1.2-0.7l0.7-3.1V506l-0.2,0.2l-0.2-0.5l0.5-0.7h0.2l0.7-0.5l1.5-0.3l0.9-1.1l0.1-0.4
	l-0.4,0.2l0.4-1.3v-1.7l-0.2,0.1l-0.1-0.7l-0.4-1.3l-0.4-0.4v-0.8l0.8-0.5l1.1-1.3l0.1,0.2l0.6-0.6v-0.2l0.4-0.1l0.4-0.6l1.6-0.8
	l0.7,0.1l0.4-0.6l0.8-0.3v-0.2l0.4-0.2l0.7-1.2l-0.2-0.2l0.5-0.8l-0.3-0.2l0.1-0.2l-0.2-0.2V487l-0.2-0.2l0.2-0.3l-0.2-1.5l0.5-0.8
	v-0.6l-1.1-0.8l-0.8-2.4l0.3-0.2l0.1-1.5l-0.9-1.1l0.6-1.7v-0.6l0.5-0.1l0.8-1.7l0.1-0.7l0.7-0.4l0.3-0.6l0.4-0.2l1.6-1.9v-0.3
	l0.4-0.1l2.4-2.4l1.6-0.8l0.9-1.2l1.8-1.6l0.6-1.4l1.1-0.9l0.2-0.7l0.9-1.6v-0.6l0.5-0.5l0.8-1.3l0.2-1.6l0.3-0.3l-0.1-1.2l0.3-0.5
	l-0.9-0.3l-0.3,0.4l-2.6,0.6l-1.5-0.1l-0.9,0.8l-1.5-0.4l-1.1,0.8l-0.8-0.1l-1.4-1.6l-0.7-0.1l0.9-0.8l-1.6-2.1l-1.4-1.4l-0.9-0.5
	l-1.2-0.3l-1.1-3.2l-2-2.1l-0.2-3.5l-0.6-0.4l0.1-0.8l-1.8-1.5v-1.3l0.3-0.1l-0.8-0.8l-1.7-3.3v-0.8l-0.5-0.6v-0.5l-1.3-1.5v-0.6
	l-0.4-0.4l0.4-0.9v0.9l0.8,1.1l-0.1,0.3l1.1,1.4l0.4-0.1l0.1-0.6l0.7-1.8v1.4l-0.3,0.7h0.7l2.5,3.9l0.6,2h0.3l1.3,0.8l0.7,2.2l0.1,2
	l0.8,0.7h0.3l1.5,1.8l-0.1,0.5l0.9,1.4l0.6,0.4l0.7,2.4l-0.3,0.6l1.3,3.9l2-0.2l1.1-0.8h1.7l1.3-0.8l0.8,0.1l1.1-0.9l4.2-1.6
	l-0.1-0.6l2.8-1.3l1.2,0.1l0.3-1.2l1.4-0.2l0.6-1.3l1.3-0.4l-0.1-1.3l0.6-0.7h0.4l1.9-2.9l-0.7-0.3l-0.7-1.5l-2.1-0.4l-1.3-1.5
	l0.2-2.2l-2.7,3.2l-2.5,0.1l-0.4,0.3L364,434l0.3-2.4l-0.7-0.3l-0.4,1.2l0.1,1.2l-0.6-1.2l-0.4-0.3l-0.1-1.5l-1.9-2.2l-0.7-1.7
	l-0.3-0.3l0.5-0.5l-0.3-0.6l0.5,0.2l0.9-1.1l0.6,1.1l0.6-0.3l2,3.7l1.4,0.2l0.4,0.7l2.7,1.1l2.2-1.1l0.8,0.5l0.5,1.8l6,1.1l6-0.6
	l0.7,0.3l0.1,0.6l0.5,0.2l0.5,1.4l0.8,0.2l0.8,1.3l1.3-0.1l0.8-0.4l-0.5,0.9l-1.3,0.2l1.9,2.4l1.9-0.5l0.3-1.2l0.1-0.6l1.1,0.2
	l-0.5,0.2l0.3,5.4l0.6,2.9l1.5,2.6l0.9,3.5l0.9,0.7l1.1,3.6l1.3,1.4l0.8-0.6l0.1-0.6l0.8-0.5l0.8-1.4h0.5l0.1-2.2l0.8-1.8l-0.5-3.1
	l0.8-0.7l0.4,0.1l0.5-0.7l1.4-0.4v-0.4l3.7-3.5l1.9-0.7l0.9-1.4l-0.2-0.8l1.3-0.5l0.3-0.6l0.4,0.9l2.7-0.5l0.6-1.6l1.1,0.3l0.8,2.3
	l2.2,2v1.1h0.3l0.8,1.9l-0.4,2.2l1.5,0.3l1.8-1.2l0.2-0.9l1.3,1.3l0.1,1.7l1.3,4.1l-0.4,2.7l0.3,0.2l-0.6,2.7l0.7,0.1l1.9,2.5
	l0.5,3.1l1.1,1.9l2.7,2l1.2-0.1v-0.7l-1.1-1.5l0.1-2.6l-1.8-1.7l-0.8-1.1l-1.3-0.3l-0.8-3.1h-0.9l-0.2-1.5l1.2-2.5v-2.4h1.4v1.2h1.1
	l2,2.5l0.6-0.3l-0.1,0.7l0.9-0.1l0.8,0.7v2.2l2.1-1.6l0.3-1.3l0.8,0.1l2.4-1.8l0.1-4l-0.4-1.3l-3.4-3.2v-0.6l-1.1-1.1l0.4-1.7
	l2.3-2.3l1.4-0.4l0.7,0.4l0.7-0.3l-0.2,1.1l0.6,1.1h0.4l-0.3-1.2l0.3-0.5l2.7-0.6l0.9-0.4l0.1-0.7l0.5,0.4l0.1-0.8l0.8,0.5l3.2-0.8
	l4.2-3.9l0.1-1.6l0.3-0.1l0.2,0.3l1.7-2.5l0.2,0.1l0.2-1.6l0.5-0.3V425l-0.8-0.6l-1.1-0.1l0.6-0.2l1.3-0.8l-1.9-1.8l1.8,0.5
	l-1.5-2.3l-0.5-1.8l-1.6-0.7l1.3-2.2v-0.5l0.7,0.4l0.3-0.9l1.8-0.6l0.1,0.2l0.4-0.9h-1.4l-1.1-0.6l-1.6,1.3l-1.1-0.4l-0.3-0.8
	l-1.6-1.2l0.5-1.2l0.6,0.1l1.2-0.5l0.1-0.8l1.5-0.8l1.1-1.2h0.6l0.7,0.9l-1.3,1.5l0.4,0.6l-0.7,0.9l1.3-0.5l0.4-0.6l1.5-0.6l1.3-0.2
	l0.3,0.6h1.3l-0.4,1.6l-0.7,1.2l0.9,0.7l0.3-0.6l1.2,0.3l0.5,1.7l-1.2,0.1l1.1,1.7l-0.8,2.3l2.3-0.9l0.7,0.1l1.1-0.6l0.4-1.4
	l-0.2-0.2v-2.2l-2.3-3.1l-0.4-0.2l0.2-0.8l3.1-2.1l-0.1-1.2l1.6-2.1h0.6l0.8-1.1l0.6,0.1l0.1,0.6l1.9,0.2l2.4-2l0.2-0.9l0.7-0.5
	l2.7-3.6l0.3-1.7l2.5-2.7l0.6-3.6l-0.3-1.3l0.6-1.7l0.8-1.6l-0.4-0.4l0.1-1.2l-1.3-0.8l1.3,0.3l0.2-0.5l-2.3-2.3h-1.3l-0.1,1.6
	l-0.3,0.2l0.1-0.8l-1.7,0.7l0.5-0.7l-0.4-0.4l0.3-0.4l-0.6,0.3l0.1,0.2l-0.6,0.6v-2l-1.3,0.2l-0.8-0.6l7.6-7.8l0.3-0.6l3.1-3.2
	l3.9-0.1l0.4,0.5l0.4-0.7l1.8,0.6l0.8-0.3l0.7,0.3l0.6-1.4l3.1,0.6l0.9,1.1l-1.5,0.1l0.4,0.8l1.6-0.4l0.3,0.2l1.1-0.7l0.6,0.3
	l1.5-0.3l-1.5-1.1l1.1-2.3l2.4-2.1V360l1.4-0.9l2-0.5l0.9,0.8l0.8-0.8l-0.6,2.7l0.7-0.1l-0.3,1.2l3.7-3.1l0.3,0.4l0.1-1.2l0.5-1.8
	l1.6-0.5l0.4,0.5l-1.3,0.7L518,361l0.2,0.4l-2.5,1.3l-0.1,0.7l-2.7,3.1v0.4l-2.2,2.4l-0.5,0.1l-0.5,0.5l-0.6-0.1l0.2,0.8l-0.3,0.9
	l-0.9,0.9l-0.5,3.2l0.7,5.3l0.6,3.1v1.4l0.3,0.9l2.3-2.6l0.1-2l1.9-0.5l-0.2-1.9l2-1.4l0.4,0.2l0.8-0.6l-0.8-1.6l1.1-1.9l-0.3-0.4
	l1.1-0.4l-0.6,0.6l0.6,0.6l0.3-1.1l-0.3-0.6l-0.3,0.1l-0.1-1.6l0.7-1.2l-1.1-0.6l-0.3,0.5l-0.3-0.3l0.1-1.5l1.6-2.4l0.2-1.3l1.7-0.6
	l0.6,0.6l0.1-1.1l1.5-0.7l-0.2,2l2.7-2.3h1.3l1.7,1.9l0.3-1.5l3.4-2.5l5.7-3.5l2.5,0.6l0.8-1.4l-1.6-4.9l-0.6,0.3l-0.7-0.5l0.1-1.1
	l1.8,0.5l1.6-0.9l1.3-2.6l-0.7-0.8v-0.8l1.9-0.4l-0.6,0.8l0.8,1.6l3.5,0.2l0.1,1.5l3.9,2.6l1.2-2.6l0.1-1.5l2-0.5l1.1-1.7l-5.9-3.6
	l-0.1,2.7l-1.3-3.9l-6.1-5.2l-6.5-3.6l-7.5-0.6l0.6,3.7l-1.8,1.4l-2.6-3.8l-1.8,1.1l-5.3-1.1l-1.8,1.5l-2.3-2l0.7-2l-1.8-2.6h-5.9
	l-2.8,0.9l-1.2-1.1l0.9-0.5l-1.1-1.5l-1.2,0.4l-1.1-1.3l-1.6-0.2l1.8-0.8l-2.2-2l-5.3-1.6l-4.1-0.2l-1.3-0.5l0.7,1.2l-1.1,1.9
	l-1.1,0.9l0.5,2.2l-2.1,0.6l-0.6,0.7l-1.8-1.5l-2.3-0.6l-0.3,1.2l-1.7-0.2l-1.2-2.5l-0.8,1.8l-0.8,3.8l-2.5-2.4l-1.1-2.9l0.9-0.9
	l0.1-1.3l-0.3-1.8l0.1-1.2l-1.8-2.1l-3.9-0.7l-0.3-0.5l-2-0.6l-0.7,1.7l0.5,1.8l-2.8,0.9l-3.9-1.2v-1.1l0.5-0.6l-4.5-0.8l-2.7,0.9
	l-0.3,1.5l-0.3-2.6l-0.6-0.9l-0.4,1.3l-2.9-1.6l0.8,1.6l-6.4,2.9l-2.5,2.6l2.3-3.8l5.3-4l5.4-6.3l-0.8-4.9l-2.9-2.8l-4.3,0.2
	L441,300l-2-0.1l2.2-2.9l-2.5-0.7l-1.6,0.6l2.1-2.5l-2.7-2.1l-1.8,0.9l-2.5,4.8l0.5,0.9l-3.5,1.2l0.9,2.4l-1.2-1.2l-3.7,1.7
	l-0.4-1.4l-3.7,0.5l0.8,0.9l-7.1,3.3l-0.8,1.1h-1.1l0.9,1.1l-1.1,1.2l-1.3-0.4l0.9,1.4l-0.8,0.7l1.7,2l-2.3,1.5l-0.8-0.3l-6.1,0.7
	l1.2,5.5l1.9,1.1l-0.5,0.6l2,0.8l0.3,2l-0.6,1.1l0.8,3.2l-1.1,0.6l0.1,0.6L407,330v-4.2l1.5-1.8l-0.6-0.4l-1.7,0.4l-1.4-1.8
	l-2.1-1.3l-2.3,1.1l1.1,0.7l-1.6,1.2l-1.1-0.9l0.1,1.4l2,1.3l0.9,1.6l-1.1-0.8l-2.3-0.3l-0.9-0.9v-2.6l0.6-0.8l-1.1-2.9l-0.4,0.5
	l0.4,1.7l-0.8,1.7l-1.6,0.9l-0.2,1.3l1.8,4l-1.3,3.5l0.4,1.2l-0.1,1.5h1.9l0.8-0.6l2.7,1.6l0.5,2.2l-0.7,0.4l-0.1,1.6l1.9,0.5
	l-1.7,0.1l-0.8-0.8l0.1-3.1l-0.8-1.5l-3.2,1.1l0.6,3.6l-1.4,1.5l-0.1,1.3l-1.9,1.3l-0.4,1.3l-2.9-0.6l-0.2-1.4l0.8,0.2l2.3-1.2
	l1.6-2.4l-0.1-1.9l0.4-1.6l-1.3-1.7l0.3-2.9l-0.4-1.9l0.4-0.4l-0.1-3.4l-1.4-1.7l0.6-0.5l0.7-4.6l-1.7-0.8l-2.7,0.1l-1.6,5.3
	l-2.1,2.1l0.3,0.7l-0.5,1.4h0.9l-0.5,4.8h1.5l1.5,2.8l-1.2,2.3l-0.2-1.1l-5.5-4.1l-4.4-1.2l-0.8,0.9l0.8,2.4l-1.4,1.2l-0.6,1.3
	l-0.5-1.2l0.4-0.4l-0.9-1.4l-2.6,2.2l-1.1-0.3l-1.6,1.9l-0.7-0.6h-0.5l-0.3-2.6l-1.1,1.5l-0.4-0.3l-0.3,1.2l-0.7-0.5l-5.6,3.8
	l-0.3,2.1l-2.3,0.5l-1.5-2.7l2.2-1.1l-1.1-2.5l-3.8-0.6l1.6,1.2l-0.5,4.2l0.7,0.4l-0.3,4.2l-2.6-2.4l-2.2,2.1l-1.1,1.6l1.8,3.6
	l-3.3-1.4l-0.7,0.7l-0.5-1.4l-1.2-0.6l-0.6,1.1l1.2,1.7l0.6-0.3l0.6,1.7l-1.1,0.3l-2.4-1.8l-0.7,0.1l-0.6-0.6l-0.5-2.8l0.5-0.3
	l-0.2-2.1l-2.6-1.8l-0.7-1.9l1.1,0.2l1.2,1.4l6.6,2.2l2.7-1.2l1.3-2.6l-0.9-2.3l-0.4,0.1l-0.9-1.3l-6.1-4.4l-0.4,0.3l-4.1-1.5
	l0.2-0.6l-1.6-0.1l-1.8,0.4l0.4-0.8l-1.5-1.1l1.8,0.3l1.2-1.1l-2.7-2l-0.8,1.7l-0.7-0.6l0.8-1.5l-1.5,0.3l-0.6,1.7l-0.6,0.3l0.1-2
	l-2.1,3.4l1.1-3.3h-1.7l0.2,0.7l-1.8,2.9l-2.3-1.2l0.5,1.1l-0.1,1.2l-0.7-1.2l-1.6,2.1v-1.7l-0.8,1.4l-0.2-0.8l-0.1,1.6l-1.1-0.7
	l0.1,0.7l-0.6-0.3l0.1,0.8l-0.9,1.8l-1.2,0.6l1.4,0.3l-2,0.2l-0.1,2l-0.4-0.8l-0.6,1.7h0.6l-0.6,0.6l-0.9-0.6l-0.8,2.1l-0.6,0.3
	l-0.3,1.4l-0.5,0.1l0.5,0.7l-1.4,1.3l0.8,0.2l-0.9,0.7l0.3,0.8l-0.6-0.2l0.1,0.9l-1.3,1.3l0.1,0.8l-0.6-0.1l-1.6,2.4l0.4,0.5
	l1.6-0.5l-1.6,1.3l-0.6-0.6l-2.2,1.2l-1.4,1.2l0.8,0.8h-2l0.4,1.3l-1.9,0.2l1.6,0.7l-1.7,0.3v1.9l1.5-0.2l0.5-0.6l-0.1,0.7l1.3-1.1
	l-0.5,0.8l0.1,0.8l-0.8-0.4l-2,0.3v0.9l0.9,1.6l0.9-1.4h0.7l-0.6,0.3l-1.1,1.7l0.6,0.1l-1.4,1.7l1.4-0.6l-0.5,1.4l-0.3-0.1l-0.1,0.9
	l2.7,1.6l2.3-1.7l0.5-1.2h0.8l0.2-1.8l0.4,1.2l0.9,0.5l-0.3,0.5l1.6,5.3l0.8,0.8l-0.6,0.7l0.7,1.4l-0.1,0.8l1.8-0.3l-0.1-1.4
	l1.2-0.4l1.2,0.1l1.2-5.5l-0.5-1.1l3.2-1.8l-3.2-0.3l2.7-0.2l0.7-1.1l-2.1-2l-0.3-3.2l0.3,0.3l0.2-1.7l-0.4-0.8h0.8l1.4-2.3l1.3-0.7
	l1.5-1.1l0.8-1.8l0.4-0.1l-0.6-1.1l0.6-1.3l-0.3-0.7l1.2-0.7l0.4-0.8l0.7,0.2l0.3-0.3l0.8,0.3l0.3-0.3l0.8,0.2v0.5l0.8,0.8l0.3,1.9
	h-1.1l-3.5,5.3l-0.7-0.1l-0.9,1.4v2.1l0.7,1.8l-0.3-0.1l-0.3,1.3l0.1,0.8l1.5,0.9v0.2l0.6,0.1l0.4,0.9l5.6-1.8l2.2-0.3l-0.3,1.3
	l0.7,0.3l0.8-0.2l0.7,0.9l-1.7-0.2l-0.3,0.5l-0.3-0.1l-0.2,0.4l-0.3-0.1l-0.1,0.7h-1.5l-2-0.5l-0.4,0.4l-1.2,0.1l-1.3,0.9l0.1,0.9
	l-0.1,0.4l0.6,0.7l1.1-0.2l-0.4,3.2l-1.1,0.7l-1.5-2.1l-1.1,0.5l-1.1,2.1l0.1,2.8l0.1,1.6l-1.7-0.1l-0.4,1.3l-1.4,0.2L319,378
	l0.4-0.3l-1.5,0.3l-4.5,2l0.4,0.6l-2.7-1.9l-2.6,1.4l0.5-1.2l-1.6-0.1l-0.1-0.8l-0.5-0.4l1.1-3.2l0.8-0.4l-1.1-0.4l0.4-1.9l-0.1-0.8
	l-1.2,1.2l-1.6,0.5l-0.4,3.7l0.8,0.6l0.4,2.1l-0.3,0.2l0.3,1.3h-0.2l-0.2,1.2l-1.2-1.1l-0.8,1.3l-0.5-0.5l-2.1,0.8l-1.4,2.7l0.7,0.3
	l-3.9,1.7l-0.3,2l-1.5,0.5l-0.4,0.8h-1.6l-0.3-0.7h-0.8l0.5,2.1l-1.4,0.3l-0.5-0.4h-0.5l-1.9,0.9l0.7,1.4h0.9l2.5,1.1l-0.6,0.7
	l1.6,1.3l-0.6,5.6l-3.1-0.2l-0.9,0.1l-2-0.4l-1.6,0.2l-0.9-1.1l-0.8,0.1l-0.3,0.6l-0.9,0.1l-0.3,0.5l0.6,0.8l0.2,2.6L281,410
	l0.4,0.7l0.6-0.1l-0.4,2.3h3.5l0.4,1.4l0.9,0.3l1.2-0.7l0.7-0.3h2.6l0.8-1.4l0.9-0.1l0.4-1.2l0.9-0.9l-0.9-1.2l2-2.8l1.5-0.4
	l1.7-1.3l-0.3-2l1.6-1.2l2.5,0.9l0.7-0.1l1.2-1.3l0.6,0.1l1.3-1.1l1.8,0.7l0.7,1.9l0.7,0.9l0.5,0.2l2,2h0.8l1.1,1.2l0.5,0.1l0.5,0.8
	h0.5l0.7,2.1l-0.4,0.4l-0.1,0.5l-0.2,0.7l0.4,0.2l0.8-1.2l-0.1-0.5l0.6-0.3v-0.8l-0.7-0.6l0.2-0.9l0.7-0.6l0.9,0.6l0.4,0.7h0.2
	l0.1-0.4l-0.7-1.2l-1.6-0.8l-1.1-0.4l0.1-0.4l0.3-0.3l-0.3-0.3l-1.2,0.3l-1.4-1.3l-0.7-2l-1.7-1.2l-0.1-2.5l2-0.7l0.3,0.4l-0.6,0.3
	l0.6,1.2l0.7-0.9l0.4,0.5l0.1,0.6l0.9,0.9l-0.4,0.1l0.9,1.4l1.4,0.2l3.6,3.2l0,2.7l0.8,0.9l1.1,1.5l0.5,1.2l2.2-0.1l0.5,0.4
	l-0.3,0.1l-1.6-0.3l-0.8,0.8l0.7,0.8l-0.1,0.5l0.4,0.4l0.3-0.6l0.4,1.2l0.3-0.7l0.6,0.5l-0.1-1.2l-0.4-0.6l0.6,0.4l0.4-0.3l-0.5-0.8
	l0.7-0.1l0.5,0.5v-0.9l-2-1.1l0.5-0.3l-0.1-0.5l0.4-0.1l-0.8-1.4l0.4-0.8v0.3l0.7,0.6v-0.4l0.6,0.4l-0.2-0.4l0.1-0.2l0.5,0.3
	l-0.4-0.5l-0.6-0.3l2-0.6l1.4,0.3l0.2,0.3h0.9l-0.8,0.5v0.4l2-1.5h1.7l0.2-0.5l-1.3-0.7V404l-0.6-1.1l0.6-0.4v-0.9l0.8-0.3l0.1-2
	l1.2-0.9l0.1-1.4l0.8-0.3l0.7-1.4l1.6-0.4l-0.2,1.1l2.5,0.3l0.2,0.3l-1.6,0.9l1.3,0.7v1.3c0,0,2.5-1.1,2.5-1.2
	c0-0.1,1.6-0.2,1.6-0.2l0.1-0.9l-2,0.3l-1.7-1.7l1.6,0.2l3.6-2.2l2-0.2l0.5,0.4l-2.5,0.8l1.2,0.9l-1.5,1.6l-0.8,0.1l3.5,2.7l1.2,1.4
	l1.7,0.7l0.4,2.1l-1.9,1.4l-3.9,0.1l-3.4-2.1l-2.8,0.1l-2.4,1.9l-2.9-0.2l0.5,0.7l-2.5,0.8l-0.8-0.2l-1.2,1.1v0.6h1.1v1.8H330
	l1.7,2.4l2.1,0.6l0.5,1.1l1.5-0.3l0.2-1.1l2.9,1.6l2.6-1.5l1.1,0.5l0.9-0.4l-0.6,0.8l0.1,2.7l-1.4,2.6l-0.8,2.6l-1.6,0.8l-1.7-0.7
	H335l-1.2,0.9l-4.8-1.2l-0.6,0.3l-0.3-0.8l-2.4-0.4l-0.2-0.7l-2.2-0.6l-2.2,1.7l0.5,1.3l-1.4,1.5l-1.3-0.9l-3.2-0.7l-0.9-1.7
	l-2.7-1.1l-1.3,0.1l-2-1.3l-1.2-0.7l1.9-1.8l-0.2-0.9l-0.8-0.8l0.8-0.8v-0.8l-1.3,0.6v-0.6l-1.3-0.3l-1.1,0.8l-2.9-0.5l-1.5,0.8
	l-0.8-0.3l-2.4,0.2l-0.6,0.2l-2.7,0.9l-0.7,0.4h-0.8l-1.6,1.3l-1.6-0.3l-2.2,0.1l-1.2-1.2l-0.7,0.2l-0.9,2.9l-2.3,1.3l-1.1,1.3
	l-0.9,2.2l-0.1,0.8l0.4,0.6l-0.9,1.6l-1.9,1.4l-1.7,0.4l-0.9,1.9l-1.2,1.1l-0.7,2.3l-1.6,2.4l-1.2,3.1l1.1,1.5l-0.3,1.2l0.5,0.9
	l-0.8,4.3l-0.9,1.4l0.9,1.6l-0.3,0.6l0.2,1.3l1.8,0.8l0.3,0.9l0.9,0.5l0.1,0.8l1.2,0.4l0.6,2.2L276.1,457.2L276.1,457.2z
	 M503.4,504.6l-0.1-0.6l0.2-0.4v-0.4l0.4,0.7L503.4,504.6L503.4,504.6z M484.4,491.4l0.4-0.4l0.5,0.2l-0.3,0.1l-0.3,0.3L484.4,491.4
	L484.4,491.4z M480.7,487.3h0.3l0.3,0.6h-0.6L480.7,487.3L480.7,487.3z M474.6,484.1l0.2-0.4l0.4,0.3l-0.1,0.2L474.6,484.1
	L474.6,484.1z M472.4,483.8l0.5,0.3l0.6-0.4l0.3,0.4l-0.7,0.5l-0.6-0.4L472.4,483.8L472.4,483.8z M472,483.9l0.4,0.6h-0.6L472,483.9
	L472,483.9z M224.5,468.8l0.6-0.5c0,0,0.8,0.2,0.9,0.2c0.1,0,1.3-0.1,1.3-0.1l0.1,0.8l-1.1,1.1l-1.8,0.1L224.5,468.8L224.5,468.8z
	 M224.9,467.3l-0.2,0.5l0.8,0.2L224.9,467.3L224.9,467.3z M223.7,468.7l0.4-0.6l0.4,0.4l-0.5,0.4C223.9,469,223.7,468.7,223.7,468.7
	L223.7,468.7z M368,413.3l-3.2,0.6l-1.9-0.8l-0.3-0.6l-1.7-0.3l-0.1-3.2l0.5,0.3l0.8-2.1l0.7-0.1l-0.4-0.5l-0.5,0.1l-2-2.5l-0.9-2.1
	l0.2-1.8l-0.3,0.6l-0.5-1.4l-0.5-0.1l1.5-2.6l-0.2-1.1l1.1,0.8l0.5-0.9l0.6-0.2l-0.4-0.3l2.2-0.6l0.8-0.8l2.5,0.3l1.6,2.6h0.3
	l0.7,1.5l-1.7-0.4l-0.7,0.3l-1.1-0.4l-0.9,0.5l-0.2-0.1v1.3l-1.9-0.2l1.7,1.8v1.2l2,0.8l-0.3,0.8l0.4,1.8v-0.8l1.1-0.6l0.8,1.2
	l0.6,0.5l-0.5,0.9l-1.8-0.3l-0.3-0.5l0.2,0.8l-0.4,0.6l0.4,0.7l1.3-0.1l-0.7,0.9l0.8,0.7l-0.3,0.6l0.2,1.9L368,413.3L368,413.3z
	 M360.9,380.4l-0.1-1.2l-0.7-0.4l0.3-1.3l1.3-1.4l1.8-0.3l-1.7,0.7l-0.7,0.3v0.5l-0.6,0.8l0.6,1.1l0.6-0.3l-0.6,1.2l0.3,0.5
	L360.9,380.4L360.9,380.4z M344.9,367.3l0.3-0.2l0.9,0.8L346,367l-0.6-0.3l0.5-0.1l1.1,1.4h0.3l0.1,0.4l-0.8,1.1l-0.2-0.7h-0.4
	L344.9,367.3L344.9,367.3z M330.9,367l0.4-0.4l0.6,0.2l0.2,1.1l-0.4,0.9h0.6l0.1,0.9l-0.8-0.6L330.9,367L330.9,367z M336.2,368.6
	l0.7-0.6l0.6,0.2v0.5l-0.2-0.2l-0.5,0.2L336.2,368.6L336.2,368.6z M345,363.2l0.2-0.2l0.6-0.2l0.3,0.2v0.5l-0.2,0.1h-0.7L345,363.2
	L345,363.2z M342.7,361.2l0.3-0.6l-0.6-0.9l-0.8-0.4l-0.4-0.7l0.5,0.1l-0.5-1.1l0.6,0.4l-0.4-1.4l0.1-0.2l0.4,0.6v0.7l0.4,0.2
	l-0.1-0.5l0.5,0.1l0.2-0.2l-0.3-0.8l-0.7-0.3l-0.3-0.8l0.7,0.6l1.1,0.6l-0.2,1.3l1.1,2l-0.1,0.7l-0.4,0.2l-0.3,0.6L342.7,361.2
	L342.7,361.2z M336.5,364.1l-0.1-1.6l-0.7-0.7l0.2-0.3l-0.3-0.7h-0.2V360l0.8-0.9h0.6l0.8,1.1l0.8,0.3l0.3,0.9h0.2l0.1,0.9l-0.7,1.2
	l-0.6-0.4l-0.4,0.2l-0.1,0.6L336.5,364.1L336.5,364.1z M333.2,360.4l-0.6-1.6l0.2,0.1l0.2-0.8l0.1,0.5l0.2-0.7l0.3-0.2l-0.7-0.9
	l-0.1-1.1l1.1,0.8l0.3-1.6l0.1,1.3l0.3,1.7l-0.3-0.4l-0.8,1.7l0.4,0.5L333.2,360.4L333.2,360.4z M329.8,360.9l-0.5-0.1l-0.1-2
	l0.2-0.3l-0.1-0.2l0.4-1.3l-0.2,1.2v1.8L329.8,360.9L329.8,360.9z M316,363.4l1.3-0.5l0.3-0.7l0.1,0.3l-0.6,0.8l-0.7,0.2L316,363.4
	L316,363.4z M313.1,370.4l0.3-2l-0.1-0.6l0.2,0.3l0.5-0.8l-0.1,1.2l-0.4,0.4l-0.2,1.3L313.1,370.4L313.1,370.4z M310.9,368.3
	l0.4-0.8l-0.2-0.6l0.2-0.2l0.2-0.6l0.2-0.2l0.3,0.8v-1.8l0.9,0.5l-0.3,2.1h-0.2l-0.6,0.6v-0.3L310.9,368.3L310.9,368.3z
	 M436.4,384.7l2-0.5l0.7-1.3l2.6-1.9l-1.2,0.5l1.7-2.2l1.6-3.6l0.6-0.5l0.1,0.4l-0.6,2.8v1.1l-0.4,0.7V380l-0.5,0.5h0.3v0.3
	l-0.4,0.3l-0.5,1.1l-1.6,0.6l-0.2,0.4l-0.6,0.1l-0.8,1.6l-1.6,0.5l-0.8-0.2L436.4,384.7L436.4,384.7z M409.6,393.1l-1.1-0.7
	l-0.4,0.1l-0.4-0.4l0.7-0.2l-0.2-0.3l0.4-1.2l0.6-0.3l-1.1-0.9l0.6,0.1l0.5,0.6l0.4,0.2l-1.2,0.5l-0.2,0.5l0.2,0.5l0.4,0.2l-0.5,0.1
	l0.8,0.5l0.3-0.1l0.2,0.4l-0.2,0.1L409.6,393.1L409.6,393.1z M395.6,398.9l-0.7-1.3l-0.3-0.2l0.2-1.2l0.3-0.1l1.3-1.3l0.5,0.2
	l0.7-0.1l2,0.5l0.8-0.3l0.5,0.4l0.6-0.6h0.4l0.1,0.5l-0.5,0.3l-0.2-0.2l-0.8,0.2l-0.7-0.3h-1.4h-1.4l-0.2-0.3l-0.1,0.4l-0.4,0.2
	l-0.4,0.5l-0.4,0.1l-0.3,1.3L395.6,398.9L395.6,398.9L395.6,398.9z M374,400.9l-0.3-2.2l0.5-0.7l0.3-1.2l0.7-0.3v0.3l0.4-0.2
	l0.1-0.7l0.3,0.3l0.4-0.2l-0.2-0.3l0.2-0.4l0.3,0.3l0.4-0.5l0.2,0.5l0.9-0.6l-0.8,1.4l0.2,0.9l0.6,0.6l0.2,0.8l-0.9,0.5l-0.1,0.7
	l-0.4,0.3l-0.3,0.7l-0.8,0.2l-0.6-0.4l-0.2,0.2l-0.6-0.2l-0.3,0.2L374,400.9L374,400.9z M330.6,493.2l1.1-1.7h0.3l0.4-0.4l0.9,0.3
	l-1.1,0.1l-0.3,0.4h-0.3l-0.8,1.1L330.6,493.2L330.6,493.2z M336.4,437.5l0.7-1.4l0.8-0.7h0.5l0.4-0.6h-0.3l0.3-0.4l0.2-0.6l0.2,1.4
	l-0.1,0.5l-0.4-0.1l-0.5,0.5l-0.3-0.1l-0.8,0.8v0.3L336.4,437.5L336.4,437.5z M292.8,458.7l0.9,0.2l0.3-0.7l-0.3-0.5l-0.5,0.1
	l0.3-0.4l-0.4-0.2l-0.4,0.2l-0.1-0.8l-1.3-0.1l0.8-0.2v-0.6l0.4,0.8l1.3,1.1l0.2-1.2l0.1,2.1l-0.3,1.3L292.8,458.7L292.8,458.7z
	 M311.6,448.3l0.3-0.2l0.9,0.2l0.2,0.8l1.4,0.2l0.1,0.7l-0.9,0.2l-0.4,0.6l-0.4-1.1l-0.5-0.1L311.6,448.3L311.6,448.3z M343.2,461.9
	l0.3,0.3l0.1,1.7l0.4,0.9l-0.8-0.8l-0.4-1.3L343.2,461.9L343.2,461.9z M337.4,472l-0.2-1.2l0.4-2.4l1.4-0.3l0.4-0.4l1.1,0.2l0.1,0.7
	h0.8l-0.9,0.6l-0.9,1.8l0.5,0.2l-1.2,0.9v-0.4l-0.8-0.4L337.4,472L337.4,472z M335.4,466.7l0.2-0.7l1.3-1.2v0.9l-0.5,0.2l-0.4,0.6
	L335.4,466.7L335.4,466.7z M333.9,468.9l0.5-0.9l0.1,0.7L333.9,468.9L333.9,468.9z M333.4,471.5v-0.8l0.3-0.6l0.2,0.8L333.4,471.5
	L333.4,471.5z M336.2,480.2l-0.5-0.3l-0.4-1.7l-0.8-0.3l-0.5-1.4l0.1-0.6l-0.3-0.7l0.1-0.6l0.2-0.4l-0.2-0.2l0.1-1.6l0.4,1.7
	l0.2,0.2l0.3,2.1l-0.3,0.4l1.4,1.1l-0.2,0.6l0.8,1.7L336.2,480.2L336.2,480.2z M333.2,480.9l0.3-0.9l0.4,0.3l-0.3,0.5L333.2,480.9
	L333.2,480.9z M341.9,488.2l-0.4-0.4l-0.5,0.1l-0.5-2.4L340,485l0.4-0.8v-1.9l-0.4-0.5v-0.6l0.7,0.6l0.3,1.5l0.5,0.7l-0.6,1.2
	l0.3,1.9l0.4,0.5L341.9,488.2L341.9,488.2z M335.8,489.9l0.2-0.1l0.6,0.2l1.3-0.1l-1.3,0.4L335.8,489.9L335.8,489.9z M315.5,494.1
	l0.3,0.2l0.5-0.3l0.7,0.5l-1.1,0.2l-0.4,0.3l-0.3-0.3L315.5,494.1L315.5,494.1z M327.8,497.7v-0.7h0.6l0.6-0.8l-0.3,0.8l0.2,0.6
	l0.4-0.9v0.8l0.4,0.4l-0.5,0.2l-0.4-0.3L327.8,497.7L327.8,497.7z M221.9,514.6l0.3-1.2l0.5-0.1l0.6-1.6l0.2,0.4
	c0.1,0,0.6-0.3,0.6-0.3l-0.9,1.7v0.3l-0.9,0.6L221.9,514.6L221.9,514.6z M215.6,516.1l0.1-0.8l1.8-0.1l-0.6,0.9H215.6L215.6,516.1z
	 M197.6,490l1.2,0.7h0.6l-0.1-0.8l-0.6,0.1l-0.8-0.7l-0.3,0.3L197.6,490L197.6,490z M202,493.7l-0.5,0.2l-0.1,0.6l1.2,0.6l-0.4-0.8
	L202,493.7L202,493.7z M80.2,439.7l-0.3,0.8l0.5,1.2L81,441l0.5,0.1l0.2-0.5l-0.8-0.7L80.2,439.7L80.2,439.7z M74.8,437l0.3,0.3
	l0.4-0.3l-0.1-0.3H75L74.8,437L74.8,437z M77,437.9l0.4,0.3l0.2-0.3H77L77,437.9z M78.5,438.3l0.5,0.2l0.1-0.3L78.5,438.3
	L78.5,438.3z M79.5,439.2l-0.4-0.6l0.8,0.4L79.5,439.2L79.5,439.2z M355.6,504.7l-2.4-2.1l-0.6-3.7l2.3-2.9l-1.1-3.4l2-2.3l2.4-1.1
	l2.5-4.2l1.4,2l0.2,3.2l-4.3,13.5L355.6,504.7L355.6,504.7z M286.6,387.9l1.8-2.3h1.7l0.9-1.3l-1.4,0.6l-0.6-0.4l-0.6,0.2l-0.2-0.5
	l-0.8,0.2l-0.4-0.5l1.9-1.2l-0.2-1.2l-0.6,0.2l1.2-1.2l1.3-0.1l0.1-2.1l-0.6,0.2l-0.5-0.7l0.5-1.4l-1.2,0.6l-1.2-0.1l-0.2,0.3
	l-0.1-0.6l0.6-1.6l-0.3-0.4l0.2-0.4l-0.3-0.3l-0.3,0.3L287,374l-0.1,0.4l0.1,0.4l-0.5,1.1l0.3-1.3l-0.1-0.1l0.2-0.9l0.3-1.1
	l-0.6,0.3l-0.6-0.5l0.8-0.9v-0.6l-0.3-0.1v-1.1l0.7-0.5l-0.1-0.6l0.6-0.9l0.8,0.2l1.6-0.3l-0.3,0.7l-1.3,1.3l0.2,0.3l-0.1,0.4
	l1.2-0.3l1.8,0.1l0.1,0.6l-0.4,0.4l-0.9,2.4l-0.7,0.5l0.5,0.2l0.5-0.3l1.6,1.3l0.5,2.4h0.6l1.3,2l-0.1,0.3h-0.3l0.6,0.8l-0.5,1.2
	l0.9-0.5l1.1,0.2l0.3,0.8l-0.3,1.1l-0.5,0.2l-0.5,0.4l0.2,0.1l-0.3,0.6l1.1,0.3l-0.7,0.8l-2.4,0.3l-0.7-0.4l-1.6,0.8l-0.4-0.4
	l-0.8,0.1l-0.5,0.9l-1.6-0.1l-0.2,0.5L286.6,387.9L286.6,387.9z M269.2,292.4l0.5-1.8l0.2,1.4L269.2,292.4L269.2,292.4z
	 M268.1,308.2l-0.1-1.9l1.2-0.3l-0.1,1.4h0.9l0.1,1.2l-1.2-0.6L268.1,308.2L268.1,308.2z M263.7,312.1l0.7-1.1l1.7,0.2l0.3,1.5
	l-1.8,0.1L263.7,312.1L263.7,312.1z M260.2,318.5l2,0.3l1.6,1.6l-0.8,0.3l0.5,1.4l-3.1-2.3L260.2,318.5L260.2,318.5z M260.6,318.2
	l2.1,0.5l0.3,0.6h0.8l0.3-0.6l-1.7-0.9L260.6,318.2L260.6,318.2z M259.2,317l0.9-1.2l2.3,1.2l-1.6,0.6L259.2,317L259.2,317z
	 M219.5,330l0.8,1.4l-1.1,0.2l0.7,0.7l-0.3,0.4l1.5,0.2l-0.5,0.6l2.3-0.2l0.3-1.5l-2.2-2L219.5,330L219.5,330z M255.8,328.7l0.5-1.5
	l2.1-0.6l0.4-0.4l0.7,1.3l-0.8,0.7l-1.5-0.1L255.8,328.7L255.8,328.7z M234.1,363.2l-2.6-2.8h-2.7l-4.7-7.8l0.1-2l1.5-2l-2.5,0.8
	V347l-1.6-0.5l-0.5-3.3l0.6-1.6l-1.3-0.5l0.1-1.5l1.6-2.7l2,0.5v-2.2l1.1-1.6l-0.5-1.1l0.9-1.8l-3.1-0.6l-2.4-2l1.8-0.6l3.6,1.9
	l-1.2-3.3l-2.2-2.8l-1.4-0.6l-0.2,0.9v1.5l-2-0.5l0.8-2l-0.8-0.4l1.4-4l-1.6-0.8v-1.9l-1.1-0.9l0.1-0.8l-0.6-0.8l-0.2-3.3l-2.9-2.8
	l-0.3-2.1l-3.6-2.8l-4.1-1.6l-1.5,1.3l-1.1-0.9l-1.8,0.4l-1.3,1.4l-2.1-1.9l1.7-0.9l0.3-1.1l-2.7-0.1l-1.4-2.5l2.2-0.5l1.8,0.5
	l-0.1-1.3l1.3,0.5l2-0.8l0.1-1.4l-2.2-1.4l-2.1,1.4l-1.4-0.4l-0.4-1.5l-3.5-0.2l-1.1-1.6l0.2-1.8l4.8-2.3l0.7-1.7l3.1-0.4l2.6-2.7
	l-0.3-2.4l0.9-0.7l0.6-2.3l-0.7-0.5l-2.7,1.7l-2.1-1.1l-0.1-1.9l2.1-0.6l1.8-2.9l1.7-2.8l1.8,0.3l0.8,0.5l0.9-0.9l-0.2-2.7l0.5-0.5
	l-1.8-1.8l1.4-1.6l2.1,0.2l3.6,4.4l-2-3.9l-2-1.9l4.1-1.4l2.7-2.1l0.1,1.7l0.7,1.8v4.7l1.2-0.9l0.9-2.5l2.5,1.4l0.7,1.1l1.6-1.3
	l-0.7-2.5l-1.7-1.4l-0.1-2l-0.8-1.5l2.8,0.3l1.6,2.5l2.1,1.8l0.7,1.8l1.8,0.8l0.6-1.7l-1.1-2.7l1.9-0.4l0.9,0.5l-0.4-1.6l-3.3-3.9
	l2.5-0.6l1.6,1.3l2.9,2l0.7-1.5l-2.3-3.1l-4.2-0.6l-0.8-1.3l2.4,0.1l0.3-1.2l1.4,1.1l3.3,1.7l0.3,1.8l1.3,0.3l-0.1-2.1l1.3-0.8
	l-0.1-1.1l0.5-0.8l-2.2-1.4l0.3-0.9l1.3-0.2l1.9,0.9l0.1-1.6l-0.8-0.9l3.3-1.1l0.2,0.3l1.5-0.8l2.6,0.3l0.2,0.5l2-0.1l1.2,1.7
	c0,0,1.8,0.1,2.2,0.1c0.4,0,2.7,0.5,2.7,0.5l-0.4,1.3l-2.2,0.8l-4.8-0.2L247,247l-1.2-0.3v0.9l-3.5,1.4l4.4-0.4l2.4-1.4h3.2l1.6,0.8
	l1.3-1.1h2.2l0.3,1.4l-0.8,0.5l0.1,1.1l2.9-0.4v0.7l0.9-0.2l2,2.4l-1.8,2.9h-1.9l-0.9,1.2l-5.6,0.1l-1.2,0.6l-1.7-0.2l-0.6,0.8
	l-2.8,2.2l0.1,1.3l0.3,0.6l1.5-1.8l6.7-2.1l2.3,0.7l0.4,1.1l-3.9,3.8l0.5,0.3l4.2-2.5l0.9-0.4l0.4-2.3l1.3-0.5l0.8,0.8l-0.2,5.5
	l-2.3,4.9l0.2,2.2l2.3-3.9l2.9-5.5l0.6,0.5l0.1,1.4l1.9-0.9l1.8-0.2l1.2-3.4l1.6-0.1l2.4,0.8l1.8,2.1l-2.4,4.3l-1.4,0.3l0.8,1.1
	l-2.3,1.7l-2.2-0.7l-1.4,1.1l-1.8-0.3l-1.3,2.1l1.9-1.2l1.9,0.9l3.2-0.6l0.5,1.1l-1.3,0.6l-3.6,0.3l-1.1,2.1l-0.1,2.9l1.1,0.4
	l-0.1,1.1l0.5,2.2l-2.7,3.7l-0.1,3.6l-0.6,0.9v1.8l2-1.7l2.2,1.9l-1.7,0.6l0.1,1.1l2.7,1.2l-0.2,2.7l-2.2-0.7l-3.2-0.2l-0.5,1.1
	l1.6,3.7l0.9-0.1l-0.4,1.2l1.8,0.9l-0.1,2l-1.9-0.7l-1.1-1.3l0.9,3.2l1.7,3.4l-3.6,0.1l0.6,2.2l2.6,2.2l-0.7,1.1l-2.6-0.2l-1.5-1.9
	l-2.1,0.6l-0.5,2.1l-1.5,0.1l2.1,4l3.6,2.4v2.2l0.7,0.5l-0.2,1.6l-1.6,0.9l-2.2-4.1l-3.7-1.9l-0.6-1.1l0.1,1.8l1.7,1.6l1.2,1.3
	l-2.9,0.1l-0.8,2.2l1.2,1.8l1.4-0.3h4.3l0.9,0.6l1.4,0.3l1.3-0.3l-2.1,2.1l-2.4,2.2l-6.6,2.3l-0.3,0.6l-1.7,0.5l-1.7-1.8l0.7,2.1
	l-1.9,2.4l-0.1,1.2l-1.3,1.1l-0.6,1.7l-1.4-0.6l0.2,1.1l-1.8,0.9l-1.1-0.4l0.8-1.2h-0.3l-0.8-0.2v1.3l-0.6,0.2l0.4,0.8l-2.9,0.4
	l0.5,0.8l-0.4,0.7l-1.3-0.1l0.2,0.5l0.8,1.8l-1.6,0.4l1.2,1.6l-1.2,2.2l-1.5,1.1l0.1,1.7l-1.4,4.4L234.1,363.2L234.1,363.2z
	 M138.4,288c0-0.1,0.7-1.2,0.7-1.2l0.4,0.1l0.4-0.5l1.3-0.2l0.9-1.3l1.8,1.7v1.2l-0.8,0.1l-0.7,0.4l-1.2-1.1v1.1l-0.6,0.1l-0.8-0.8
	l-0.5,0.7l-0.5,0.2L138.4,288L138.4,288z M137.2,292.1l0.7-0.4v-0.7l-0.8-0.7l-0.1-0.5l-0.9,0.7l0.3,0.6h0.2L137.2,292.1
	L137.2,292.1z M139.7,294.2l-0.3-0.7l-0.9-0.2l-0.1-2.5l3.1-1.3l0.3,0.3l0.6-0.4l1.1,0.3l-0.1,0.8l-2.3,0.8l0.5,0.5l0.3-0.4l0.9,0.1
	l-0.2,1.7l-1.4,0.4l-1.1,0.6L139.7,294.2L139.7,294.2z M58.5,352.9l-0.2,0.9l0.6,0.5l0.8-0.3l1.3,0.8v0.2h0.4l0.5-0.4l0.5,0.1
	l-0.3-0.6l-0.6,0.2l-1.4-1.3l-0.8,0.4L58.5,352.9L58.5,352.9z M66.8,363l-1.1-0.2l-0.6,0.4h-0.9l0.6,0.8l1.3,0.3l0.4-0.4l0.4-0.2
	L66.8,363L66.8,363z M67.6,361.5l0.8,0.3l0.1,0.4l-0.6,0.5l-0.1-0.6l-0.6-0.2L67.6,361.5L67.6,361.5z M49.6,384.6l-0.3-0.5l0.7,0.1
	L49.6,384.6L49.6,384.6z M51.3,384.7l0.1-0.8l0.6,0.4L51.3,384.7L51.3,384.7z M54.1,383.5l0.6-0.8v0.8H54.1L54.1,383.5z M55.2,383.4
	l1.3,0.1l-0.8,0.2L55.2,383.4L55.2,383.4z M61.6,382l0.7-1.2l0.4-0.1v-0.3h0.6l-1.5,1.5L61.6,382L61.6,382z M65.1,379.1l0.4,0.9
	l-1.9,0.7l1.3-1.1l-0.3-0.2L65.1,379.1L65.1,379.1z M67.5,377.9l0.7-0.9l1.1-0.3l0.5,0.8l-1.1,0.2l-0.8,0.6L67.5,377.9L67.5,377.9z
	 M84.6,369.4l-1.3,0.3l-0.3-0.2l-0.1,1.3l-0.6-0.6l0.1,1.9l0.5-0.3v0.5l0.7-0.9l1.2-0.4l-0.3-0.5l0.8-0.1l-0.5-0.2
	C84.7,370.1,84.6,369.4,84.6,369.4L84.6,369.4z M83.9,368.6l0.3,0.4l1.3-0.4l-0.4-0.6l-0.6,0.4L83.9,368.6L83.9,368.6z M92.7,362.5
	l0.1,0.5l0.7-0.3L92.7,362.5L92.7,362.5z M91,364.4l0.3-0.7l0.9-0.7l0.1,0.1l-0.5,0.7l-0.1,0.5L91,364.4L91,364.4z M108.7,370.4
	l-0.8-0.5l-0.3,0.8l-0.7-1.6l0.7-0.7l0.4,0.4l0.7,0.2L108.7,370.4L108.7,370.4z M109.2,371.4l0.3-0.9l-0.5-1.2l0.1-0.5h0.6v0.9
	l0.4,0.9l-0.8,0.8L109.2,371.4L109.2,371.4z M108.6,372.4l0.5-0.7l-0.2-0.6l-0.8-0.5l-0.1,0.4l0.5,0.7L108.6,372.4L108.6,372.4z
	 M109.2,373.7l-0.4-0.7l0.3-0.6L109.2,373.7L109.2,373.7z M109.7,372.3l0.4,0.6l0.3-0.4l-0.4-0.2H109.7L109.7,372.3z M110.1,373.9
	l-0.4-0.4l0.4-0.3V373.9L110.1,373.9z M113.3,375.9l0.2-1.2l0.5-0.2l0.3,0.8l-0.1,0.6v0.5l-0.4-0.4v-0.7l-0.4,0.6
	C113.4,376,113.3,375.9,113.3,375.9L113.3,375.9z M111.6,373.4l0.1-0.2l0.2,0.1l-0.1,0.3L111.6,373.4L111.6,373.4z M111.3,373.1
	l-0.2-0.9l0.4,0.3l-0.3-0.8l-1.2-0.3l0.6,0.8l0.1,1.1L111.3,373.1L111.3,373.1z M110.7,373.5l-0.1,0.8l0.5-0.3l0.2,1.2h0.4l-0.1,0.6
	l0.8,0.6l0.3,0.9l0.3-0.6l-0.2-0.2l0.1-0.3l-0.7-0.9v-0.7l-0.8-0.6v-0.3L110.7,373.5L110.7,373.5z M113,380.6l0.3-1.8l-0.9,1.3
	l-0.1-0.2l0.4-0.4l-0.9-0.6l-0.2,0.2l0.3,1.4l0.5,0.2l-0.1,0.4L113,380.6L113,380.6z M114,383.3l-0.8-1.4l0.2-0.8l-1.1,0.2l0.4,0.4
	v0.5L114,383.3L114,383.3z M124.7,391.3l-2.7-1.1v-0.5l-1.3-0.5l0.5-0.5l-1.6-1.1h-0.7l0.3-0.9l-1.1-0.1l0.3-0.4l1.7,0.6l1.8,0.5
	l1.3,2l1.3,0.6L124.7,391.3L124.7,391.3z M139.8,426.2l-0.1,0.4l0.4,0.1l-0.1-0.4L139.8,426.2L139.8,426.2z M403.5,454.6l0.1-0.1
	l0.3,0.1l0.8,0.8l0.1,0.3l0.5,0.6l0.5,1.2h0.2l-0.1,1.3l-1.1,1.1l-0.6,0.2l-0.8-0.7l-0.4-2.5h0.2l0.5-1.6L403.5,454.6L403.5,454.6z
	 M388,545.9l-0.1-0.5l0.2-0.4l0.3,0.5L388,545.9L388,545.9z M388.1,547.2l0.6-0.2l0.2,0.2l0.3-0.2l0.4,0.2l-0.1-0.5l0.7,0.1l0.3-0.8
	c0,0-1.9,0.3-2,0.3C388.5,546.3,388.1,547.2,388.1,547.2L388.1,547.2z M466.9,419.5l0.9-0.4l0.2,0.3l-0.5,0.4L466.9,419.5
	L466.9,419.5z M468.9,430.7l0.9-1.1l-0.2,0.7L468.9,430.7L468.9,430.7z M517.9,368.2l0.7-1.5l1.2-0.4l-0.1,0.7L517.9,368.2
	L517.9,368.2z M365.8,325.4l0.3-0.2l0.3,0.3l0.7,0.5l-0.2,1.3l-0.5-1.4L365.8,325.4L365.8,325.4z M329,326.9l0.4-0.7l0.4,0.5
	l-0.3,0.1l-0.2,0.2L329,326.9L329,326.9z M326.7,328.8l-0.2-0.8l0.5,0.3l-0.1,0.5H326.7L326.7,328.8z M324.5,328.8l-0.3-0.3l0.7-0.4
	l0.1,0.2l0.3-0.3l0.4,0.3l-0.2,0.4L324.5,328.8L324.5,328.8z M325.8,329.7l-0.4-0.7l0.8-0.4l0.1,0.7L325.8,329.7L325.8,329.7z
	 M325.3,329.9l-0.5-0.3l0.1-0.1l0.6,0.2L325.3,329.9L325.3,329.9z M322.5,330v0.7l-0.4-0.4L322.5,330L322.5,330z M321.1,330.4
	l0.3-0.2v0.4L321.1,330.4L321.1,330.4z M320.4,331.5l-0.5-0.4v-0.5l0.5,0.3h0.6L320.4,331.5L320.4,331.5z M318.8,332.5l0.3-0.4
	l0.9-0.4l-0.2,0.8L318.8,332.5L318.8,332.5z M317.2,334.6l0.1-1.2l1.1-0.8l0.3,0.6l-0.1,0.9h-0.6L317.2,334.6L317.2,334.6z
	 M315.3,334.4l0.6-0.8l0.1,0.9l-0.6,0.3L315.3,334.4L315.3,334.4z M313.8,336.5v-0.4l0.7-1.1l0.3,0.9L313.8,336.5L313.8,336.5z
	 M313.5,338.2l0.1-0.5l1.3-0.8l0.5-1.6l0.3,1.1l0.5-1.1l0.5,0.9l-1.3,1.2l-0.2-0.2L313.5,338.2L313.5,338.2z M305.4,353.4l1.1-0.2
	l0.2,0.2l-0.9,0.4L305.4,353.4L305.4,353.4z M292.1,364.3v-0.8l-0.2-0.3l0.3-1.1l0.5,1.2l-0.2,0.8L292.1,364.3L292.1,364.3z
	 M289.6,366.2l0.4,0.6l-0.5,0.1L289.6,366.2L289.6,366.2z M540.5,327.4l0.2-1.4l3.5-2l2,0.2l1.1,1.4l-1.7,0.9l-1.5,0.8l-0.9-0.6
	L540.5,327.4L540.5,327.4z M421.9,273.3l1.3,0.9l2.7-1.1l2.2-0.1l0.3-1.8l0.9-0.8l-1.5-1.6l-0.4-3.3l-0.8-1.9l-0.6,1.1l-0.2,2.2
	l-1.8,0.6l-0.5-0.1l-0.2,0.9l-1.5,2l0.2,1.1l-0.6,0.7L421.9,273.3L421.9,273.3z M374.1,270.6l0.2-1.4l-1.9-1.2l-0.9,0.6l1.4,1.4
	L374.1,270.6L374.1,270.6z M382.5,270.5l-1.3-1.9l2-3.7l0.7,0.1l-0.2,4.1L382.5,270.5L382.5,270.5z M377.3,273.4l-0.1-1.8l1.9-3.1
	l1.4,1.2l-1.2,0.8l0.4,2.9L377.3,273.4L377.3,273.4z M371.6,274.6l0.1-1.3h1.6l0.5,0.9l-0.9,0.2l-0.3,0.6L371.6,274.6L371.6,274.6z
	 M368.8,272l0.1,0.5l1.6-0.5l-1.3-0.3L368.8,272L368.8,272z M366.9,273.7l1.2,0.5l0.5-0.9L366.9,273.7L366.9,273.7z M363.5,276
	l1.7,1.1l0.2-1.3l-1.4-0.9L363.5,276L363.5,276z M361.1,275.8l-1.6-2c0,0-0.1-2.2,0.3-2.2c0.3,0,2.5-0.1,2.5-0.1l1.6-1.4l1.3,0.6
	l-2,1.7l0.6,0.9h-1.7L361.1,275.8L361.1,275.8z M355.7,271.2l1.4,1.2l1.5-0.8l0.8-1.7l2.3-0.6l-3.1-0.2L355.7,271.2L355.7,271.2z
	 M322.7,281.2l3.5-3.5h-2.8l-1.4,1.1l-0.8-1.5l-1.1-2.5l1.5,0.2l1.6-1.7l2.2,2.8l1.3-0.8l1.7-0.5l-0.5-0.9l2.5,0.9l2.4,0.2l-1.1,3.3
	l-1.1,0.4l-0.4,2l-1.8,0.3l-0.7-0.6h-2.8C324.9,280.5,322.6,281.1,322.7,281.2L322.7,281.2z M324.1,289.2l1.8-0.2l-0.1-1.7h-1.1
	l-0.8,0.9L324.1,289.2L324.1,289.2z M326.2,295.4l-0.3-2.2l-1.6,0.6v-1.6l1.4-1.9l1.8,0.1l1.8,1.7l-1.3,0.2L326.2,295.4L326.2,295.4
	z M318,299.3l-3.8-5.9l2.3,0.4l0.3-1.1l1.6-1.3l-1.8-0.2l-1.4,0.4l-0.9-0.6l0.1-1.8l2.6-0.6l1.3-1.3l-1.3-0.4l-0.8-1.7l-1.1,1.2
	l-0.1,1.3l-1.3,1.1l-2.1-1.8l0.2-2.5l-0.2-1.2l0.1-1.5l-1.3-0.9v-2l0.6-0.8l1.3,2.4l1.4,0.1l0.5,1.4l0.3-2l0.9-1.4l0.8,3.6l1.3,1.9
	l0.5-0.8l-0.9-4.4l-1.1-0.6l1.2-1.4l1.4,0.3l1.1,2.3l1.3,1.4l0.1,1.1l3.3,2.8l-0.7,1.1l-1.6,0.5l-2,6.6l-0.8,1.3l-0.1,2.5L318,299.3
	L318,299.3z M168.1,289.4l-2.9-2l1.7-0.9l-1.7-1.5l-0.4-2.1l1.4-0.9l2.6,1.1l-0.5-1.7l-1.6-1.3l-1.9-0.4l-0.5-1.3l-1.9-0.5l-0.2-1.2
	l2.6-0.8l-0.7-1.2l-1.3-2.6l1.4,0.1l0.4-0.6L164,271l-1.2-1.2l0.8-0.6h1.5l0.2-1.1l0.9-1.5l1.1,4.8l1.8,0.6l0.6,2.1l0.3,1.8l2.3,0.1
	l0.8,1.7v1.6l1.6,0.5l0.9,1.8l-1.3,1.4l-2.3,0.4l0.3,2l-1.2,1.8l-1.5-1.3l-0.1,2h-1.1L168.1,289.4L168.1,289.4z M171.8,300l0.9-0.2
	l2.6,0.3l1.4,1.4l0.5-1.6l1.5-0.5l1.8,0.9l0.9-1.7l0.9,1.1l1.8,1.3l1.8-0.4l0.9-1.5l-0.4-1.7l-3.3-1.8l-1.7,0.6l-0.2-1.1l0.3-1.4
	l0.6,0.7l3.2,0.2l1.8-0.5l-1.1-0.6l0.2-2.4l1.9-0.5l-0.5-1.6l2.9-2l-0.1-2.4h-2l-2.7-0.6l0.8-3.6l3.8,0.1l1.5-0.7l-1.2-2.1l3.5,1.3
	l0.6-2.1l-1.3-2l1.7-0.2l0.2-1.3l1.5,0.7l2.4-5.1l1.6-1.3l-0.2-1.5l2.8-2l0.1-1.4l-7.5,4l-0.5-0.7l3.2-2.5l-1.5-0.1l5.9-2.3l5.5-5.5
	l-0.9-2.2H205l-0.7-2.3l-3.5-0.9l-2.4,1.7l-1.6-0.5l2.4-2.8l-3.7-0.3l-1.9-0.6l-1.4,0.3l-2.1-0.7l0.1,2.5l1.2,2l-3.5-3.6l-2.5-0.1
	l-1.3,1.3l1.4,0.8l2.6,2.5l-2.1,1.6l-2.4-4.4l-2.4-0.3l-0.2,1.1l1.1,0.6l-0.3,1.6h-1.6l-0.1,0.9l-1.6-0.6l-1.5,2.5l4.3,3.9l-2.7-1.8
	h-2l-1.9-3.1l-0.7,0.9h-0.7l-0.5,1.4l1.5,0.1l1.8,1.7l-1.6-0.1l-1.6,0.3l-2-1.4l-2.4,1.6l-0.6,1.3h-1.3l-0.5,0.8l1.8,0.7l1.5-0.1
	l0.7,1.1l2.1-0.5l-2.4,2.5l0.3,2l4.1-0.2l1.7-0.7l0.7,1.3l2.2,0.5l-3.7,2.2v2l1.5-0.7l2.6-1.1l2.2,0.2l2.2-2.1l-0.1-2.4l1.6-1.8
	l0.5,1.9l-0.6,1.3l0.3,0.9l0.6-0.1l1.8,0.6l0.6,0.9l-1.8,0.8h-1.7l0.6,1.4l-5.8,2.2l0.1,1.1l1.2,1.1l0.3,2l2.1,0.5l-0.7,0.9
	l-1.6,0.1l-1.2-2l-3.5-3.7l-1.9-0.3l-0.1,1.8l1.3,1.4l-0.5,1.1l1.8,1.4l2.1,4.5h1.7l0.9,1.4l-1.8,1.5l-1.7-1.3l-2.9,0.2l-0.6,2.3
	l2.8,0.8l-0.7,3.4l1.7,1.1l2.6-1.8l-1.3,2.7l-2,0.8l-3.6-3.6l-1.4,1.3l2.1,2.5l-0.5,1.4l-0.9-0.3l-3.1,1.5L171.8,300L171.8,300z
	 M161.1,291.8l0.6-0.9l2-0.1v-2.5l0.4-0.5l-0.8-1.4l-1.2-0.1v-0.8l-2.6-1.5l0.1,2.1l-0.4,0.3l0.9,2l1.3,0.5l-1.4,0.4l0.8,1.6
	L161.1,291.8L161.1,291.8z M161.9,292.3l0.9-0.8l0.3,0.2l2.2,0.1l0.6,0.7l-0.5,0.4l0.1,1.1l-3.3-0.6L161.9,292.3L161.9,292.3z
	 M440,289.5l0.7-0.4c0,0,0.2,0.4,0.3,0.3c0.1-0.1,0.5-0.2,0.5-0.2l-0.1,1.1L440,289.5L440,289.5z M424.8,301l0.4-0.3l0.7,0.1
	l0.2,1.1L424.8,301L424.8,301z M416.9,294.9l0.2,0.9l-0.4,0.3l-0.2-0.7L416.9,294.9L416.9,294.9z M424.5,296.9l1.7-1.3v1.1l-0.8,0.6
	v-0.4H424.5L424.5,296.9z M406.7,306.8l-0.3-0.7l-0.2,0.3v-0.8l0.4,0.1l0.2-0.5l0.4,1.1h-0.3L406.7,306.8L406.7,306.8z M403.2,319.4
	l-1.3-0.6l0.8-1.2v0.5l0.4,0.5L403.2,319.4L403.2,319.4z M399.5,321.2l1.1-1.5l0.9,0.6l-0.6,0.7L399.5,321.2L399.5,321.2z
	 M396.4,318.5l-0.6-0.7l0.3-0.5l0.5,0.4L396.4,318.5L396.4,318.5z M390.2,317.8l0.5-2.1l0.6-0.1l0.4,0.6l-0.2,0.4l0.7,0.3l-1.5,0.7
	C390.8,317.7,390.2,317.8,390.2,317.8L390.2,317.8z M368.2,315.9l1.3-1.8l-2-0.2l3.5-3.5l-0.7-0.9l1.1-0.6l-1.3-2l2.3-0.5l2.4-3.4
	l2.3-1.3l-0.1,0.7l0.7-0.5l-0.2-0.8l2.4,0.2l4.4-2.1l-0.3-1.3l2.8-1.4l1.6,1.3l-0.8,3.7l-6.6,2.9l-3.2,3.2l-1.2,0.1l-0.3,1.8
	l-1.2-0.2l-0.3,1.4l-0.8-0.1l0.4,1.1l-0.7,1.3l-0.8-0.8l0.2,2.2l-1.2-0.3l0.8,1.1H372l0.3,0.6l-0.7,1.1l-2-0.8l-1.2,0.5l-0.4-0.1
	L368.2,315.9L368.2,315.9z M372.5,328.1l-4.5-0.5l-1.4-3.3l-1.5,0.2l-0.5-2.4l2.1-2.4l-0.8-1.4l3.6-2.2l1.8,1.1l-1.6,5.7l1.7,4.1
	l1.5,0.8L372.5,328.1L372.5,328.1z M361,336.3l-0.9-0.6l0.4-2.6l0.8-0.1l1.8,1.4L361,336.3L361,336.3z M376.7,332.3l-1.8-0.9
	l-0.8-1.3l1.3-1.1l1.8,2.5L376.7,332.3L376.7,332.3z M136.5,297.4l0.4,0.5h1.2l0.1-0.4l-0.6-0.5L136.5,297.4L136.5,297.4z
	 M128.8,303.1l-0.6-2l-0.6,1.4l-1.7-0.4l0.2-0.8l-0.5-0.2l1.1-1.5h0.7l3.4-5.2l1.6-0.2l0.6,0.3l0.9-0.3l-0.7-0.5l0.8-0.4l1.7,1.3
	l-1.5,0.9l0.9,1.7l-0.8,0.1l0.3,1.3l-1.3,0.6l-0.3,1.6l-1.2-1.1l0.6-2.1l-0.8,0.3l-0.2,1.5l-0.3-0.3l0.4,1.3l-0.8,1.2l-0.3-1.1
	l-0.4,0.3l-0.1,1.9L128.8,303.1L128.8,303.1z M131.4,305l0.5-0.5l1.1-3.1l-1.4,0.8l-1.2,1.8L131.4,305L131.4,305z M148.5,307.4
	l-0.8,0.8l-1.2-1.1l-0.8,0.8l-0.3-0.9l-0.6,0.6c0,0-2.1,0.9-2.3,0.9s0.1,0.5,0.1,0.5l-2.4,1.5l-1.9-0.3l-0.8-1.1l1.4-1.4l1.7-0.3
	l0.3,0.3l1.3-1.8l-1.8,0.8l-0.7-0.5l-0.1,0.9l-1.8,0.1l1.1-2.1h-0.9l-0.4,0.8l-0.4-0.2l0.1,0.9l-0.7,0.8l-0.4-0.8l-0.6,0.9l-0.8-1.1
	l-0.3,0.4l-1.8-0.9l0.7-1.4l1.6,0.2l1.3-1.3l-1.6,0.8h-1.3l0.1-1.1l2.9-0.7l-2.5-0.1l0.5-1.7l2.2,0.1l-1.6-0.6l0.3-0.9l2.1-0.2v1.6
	l1.8-0.5l1.6,2l-0.5,0.8l0.8-0.1l0.7,1.8l2.8-0.1l0.3-0.7l-1.5-1.3l1.1-0.7l-2-2.2l1.3-0.4l0.4-1.9l0.7-0.1l0.4,0.5l-0.4,0.6
	l0.8,1.7l-0.4,1.6l1.3,0.2l-0.6,1.3l1.1-0.6l0.5,1.3l0.1-1.6h1.3l0.7,2.3l-0.5,0.3L148.5,307.4L148.5,307.4z M156.9,291.3l-0.9-0.7
	l-0.5-2.1l-0.5,0.1l-0.4-0.6l-1.3,0.1l-0.3-0.7l-1.6,1.1l-1.4-1.2l0.2-1.2h0.4l1.4,0.6l0.4-0.7l-1.1-0.3l0.8-0.9l-1.3-0.3l0.3-0.7
	l-0.3-0.5l-1.2,1.3l0.4-1.6l-1.1,0.1l-0.3-1.2l0.4-0.9l1.9-0.6l0.2,0.8l0.8-0.1l-0.1,2l0.4,0.3v-1.4l0.7-0.6l0.7,1.4l0.5-0.2
	l0.2,1.3l0.6-0.2l1.4,1.9h0.3l-0.4,1.3l0.1,0.9h0.3l0.8,1.8l-0.2,0.6v0.5L156.9,291.3L156.9,291.3z M153.2,290.7l1.1,0.9l0.7-0.4
	l0.7,0.1l-1.4-1.3L153.2,290.7L153.2,290.7z M149.8,295.2l-0.7-2.1l-0.2-1.2l-0.1-0.4l1.3,0.5l0.2,1.4l0.5,0.4l0.3,1.4l-0.4,0.4
	L149.8,295.2L149.8,295.2z M154.6,298.7l1.3-0.9l0.4,0.3l-0.9,0.8l-0.6-0.1L154.6,298.7L154.6,298.7z M151,300.2l1.1,0.1l0.6-0.5
	l-1.4-1.5l-0.9,0.5l0.4,0.5l-0.1,0.5L151,300.2L151,300.2z M150.8,301.4l0.1-0.5l1.7-0.6l0.8,0.5l-0.1,0.5l-1.2,0.5L150.8,301.4
	L150.8,301.4z M151.4,302.6l0.5,0.1l1.3-0.4l0.4-0.3l-0.4-0.2L151.4,302.6L151.4,302.6z M152.2,303.4l0.6-0.8l0.9-0.3l0.1,0.4
	l-0.5,0.7H152.2L152.2,303.4z M150.7,305.3l-0.6,1.6l1.2,0.6l0.6-0.6l-0.4-1.5L150.7,305.3L150.7,305.3z M161.1,305.8l-0.3-0.8
	l0.7-0.6v1.4L161.1,305.8L161.1,305.8z M159.2,307.5l0.1-0.6l0.6,0.3l-0.7-1.2l0.5-1.6l0.6,1.3l0.2-1.6l-0.8-0.5l0.5-0.4v-1.8
	l-0.4-0.7l0.3-0.8l-1.2-1.2l-0.7,1.1v-0.3l-1.8-0.8l-1.2,0.8l1.4,1.1v1.1l0.6,1.1l-1.3-0.5l-1.5-2.6l-0.8,0.8l0.6,2.1h0.6l0.1,1.2
	l-0.9-0.5l-0.1,0.8l-0.5-0.1l-0.3,0.9l2.9-0.9l2.2-0.2l-1.3,0.6l-1.2,2.5l0.6,1.2L159.2,307.5L159.2,307.5z M162,304.9l-0.4-1.1
	l0.6,0.6L162,304.9L162,304.9z M163.5,304.1l-1.9,2.6l0.3,1.5l2.1,1.6l1.4-0.2v-3.3l-1.2-1.6L163.5,304.1L163.5,304.1z M183.7,308
	l0.5,1.2l0.9-0.7l-0.5-0.8L183.7,308L183.7,308z M184.6,303.5l1.2-0.2l-0.5-0.5l-0.1-1.2l-0.6,1.4L184.6,303.5L184.6,303.5z
	 M167.9,309.9l-1.3-4l0.7-1.3l-1.5-4.1l-2.4,0.5l-2.9-4.2l1.6-1.3l3.6,1.5l-0.5,2.5l3.5-1.4l1.2,1.5l1.8,1.1l-3.2,0.6v2.2l1.6-0.6
	l4,2.4h2.1l0.5-0.8l4.7-1.4l3.4,2.4l-1.5,2.2l0.5,1.6L181,310l-1.5-1.6l-0.6,1.8l-6.6,0.3l-0.1-2.2l-0.8,0.9l-0.8-0.7l0.5,1.5
	l-0.8,0.7l-0.8-1.3L167.9,309.9L167.9,309.9z M183.3,314.5l-0.3,2.1l1.1,0.6l0.3,1.6l0.8,0.5l1.5-0.9l2.8,0.4l-1.6-3.3l-1.8-0.9
	l-0.8,0.3L183.3,314.5L183.3,314.5z M163.6,322.4l1.3-0.2l0.9-2.1l-1.2-1.1l1.6-0.1l1.4,0.3l2.5-5.7l-2.1-0.7l-0.4,0.3l-2-1.2
	l-2.5,1.5l0.9,1.4l-1.3-0.5l0.1,4.7l0.8,1.6v1.8H163.6z M161.1,317.1l-0.5,0.6l0.4,0.9l0.5-0.7L161.1,317.1L161.1,317.1z
	 M157.7,313.7l0.9,0.5l1.3-1.4l-1.4,0.1L157.7,313.7L157.7,313.7z M158.5,325.8l-2.4-4.3l-1.2,0.1l-1.8-2.8l0.6-1.1l1.7,2l1.3-0.8
	l-0.2-2l-1.6-0.9l1.8-2.5l1.3,1.1l2.9-0.5l-1.7,4.3l0.8-0.3l1.3,1.5l0.2,4.1L158.5,325.8L158.5,325.8z M184.2,333l-0.6-1.4l1.5,0.4
	l-0.6,0.5l-0.3-0.1L184.2,333L184.2,333z M184.9,335.3c0.1-0.1,1.8-2,1.8-2l-0.7,1.6L184.9,335.3L184.9,335.3z M191.3,338.7l0.6,0.7
	l0.5-0.1l0.4,0.2l0.4-0.2l-0.6-0.7l-0.5-0.2l-0.1-0.3l-0.3,0.3L191.3,338.7L191.3,338.7z M188.9,341.4l-0.6-0.3l-0.4-1.8l0.9-1.7
	l0.7-0.3l1.1,0.4h0.3l0.2,2.3l-0.8,1.2L188.9,341.4L188.9,341.4z M196.5,356l0.5,0.5l0.5-0.2l-0.4-0.3C197,356,196.5,356,196.5,356
	L196.5,356z M204.1,359.2l0.8,0.9l0.2-0.2v-0.6l-0.5-0.3L204.1,359.2L204.1,359.2z M200.2,363.2l0.3-0.3h0.2l0.1-0.7l-0.6,0.3
	C200.4,362.5,200.2,363.1,200.2,363.2L200.2,363.2z M184.8,374.8l-0.1-1.1l0.5-0.9l0.2,0.4l-0.5,0.7L184.8,374.8L184.8,374.8z
	 M181.4,381.5l0.8,0.1l0.5,0.5l0.5,0.1l-0.4-1.2L182,381L181.4,381.5L181.4,381.5z M184.4,359.7l-0.5-0.9l0.1-1.5l1.1-0.1l-0.5,1.7
	L184.4,359.7L184.4,359.7z M178.9,358.1l0.7-2.2l1.4-0.4l0.6,0.2l-1.1,1.2v0.6L178.9,358.1L178.9,358.1z M187.3,350.8l1.8,0.6
	l0.7-1.1l1.7,0.3l-0.3-1.1l0.4-0.2l1.6,0.7l1.3,2.5h0.9l0.7,0.7l-0.7,0.4l2.3,2.1l0.9-0.4l1.7,1.9l2.1,0.4l1.1,0.6l-0.2-0.8l0.1-0.4
	l-3.9-4.3l0.5-0.1l2.4,1.7l0.1,0.5l2.1,0.6l0.5,0.9l0.2-1.5l-0.3-1.4l0.5,0.3v-2l-1.3-0.6l0.8-1.1l-1.4-1.1h-1.1l-0.8-2.3l-0.7-0.2
	l0.7-1.1l-1.4-1.6l1.2,0.1l0.1-0.7l0.6,0.3v0.6l1.2,1.2h0.8l1.1,2.5l1.5,0.8l0.1-2.7l0.9,0.6l0.8-1.5l-0.6-0.7l0.2-0.5l0.9,0.5v-0.5
	l0.6-0.7l-1.5-1.5l-1.4,0.6l0.3-1.4H206l0.2-0.5l-0.8-1.7l-0.4,0.1l0.1-0.7l-1.6,0.5l-0.1-1.1l-0.8-0.1l0.1-0.6l-2.4-0.8l0.7-0.4
	l-0.5-0.9l0.4-0.1l-0.9-0.8l0.9-0.1l0.8,0.5l1.1-0.1l-1.2-1.1l-1.6-0.1l-0.4-0.6l1.7-0.7l0.3,0.3l0.3-0.6l-1.5-1.6l-0.1,0.6
	l-1.1,0.7l0.5-0.8h-1.7l1.6-1.2l0.4,0.1l0.1-0.6l-2.1-0.6l-0.8,0.7l0.8-1.3l-1.4,0.7l0.3-1.6l-1.4,0.5l-0.6-0.5l1.3-0.4l-1.8-2.4
	l-1.3,1.6l-0.7-1.9l-0.9,0.3l0.2-1.2l-0.9-0.4l-0.3-1.7l-3.3-1.4l-1.4,2.1l-1.6-0.9l-1.3,2.7l0.4-4.1l-1.2-2l0.3-0.7l-0.6-1.7
	l-3.2,0.8l-1.6,1.8l1.1,0.9l-1.5-0.2l-0.3,2.7l0.5,0.3l-1.3,1.6l2.1,2l-0.9,2.5l-0.3-0.5l-1.8,0.3l2-1.4l-1.9-2.6l0.2-2l-0.3-1.5
	l1.5-4l1.2-1.1l-2.7-0.2l-3.2,2.8l-1.3,6.2l0.3,0.7l-0.2,1.4l2.7,0.5l0.8,1.1l-1.4,0.6l-1.3-0.5l1.1,2.8l2.7,0.1l1.7,1.4l3.1-0.1
	l1.6,0.8l0.3-0.6l1.3,0.6l-0.5-0.9l1.6,0.1l0.3,0.6l1.6-0.2l-1.1-2l2,0.8l0.6,1.6l2.6,2.5l-1.6,0.5l-0.1,1.6l2.5-1.8l0.8,0.2
	l-0.8,0.7l0.8,1.2l0.2-0.6l0.5,1.6h0.6l1.2,3.8l-0.9,1.9l-2.1,1.8l1.4,2.5l-0.8-0.5l-1.6,0.9l-2.9-0.6v0.9l-0.8,1.1v0.9L187.3,350.8
	L187.3,350.8z M195,349.1c0,0,0.6,1.3,0.7,1.3c0.1,0,1.2-0.8,1.2-0.8l0.1,0.5l0.5,0.1l-0.5-1.6l-1.5-1.2l0.4,1.9L195,349.1
	L195,349.1z M187.9,353.2l0.5,0.1l0.4,0.6l-0.8-0.2L187.9,353.2L187.9,353.2z M186.2,354l0.8-0.2l0.5,0.4l-0.3,0.8L186.2,354
	L186.2,354z M178,345.2l1.1,0.7v0.3l0.7,0.6l-0.7-0.1L178,345.2L178,345.2z M176.7,345.9l0.5,0.8v0.5l0.3,0.7l0.5-0.5l0.4,0.7
	l1.1,0.3l0.3,0.8l1.8,0.8l0.5,2l1.1-0.4l0.8,1.1l-1.1,1.1l-1.8-0.7l0.1-0.5l-1.2-0.2l0.3-0.7l-1.1,0.2l0.2,0.8l-1.5,1.8l-1.3,0.4
	l-0.3-2.1l-2,0.8l0.1-1.1l1.3-1.1l-0.3-1.3l0.3-2.7L176.7,345.9L176.7,345.9z M175.2,339.4l-0.4-0.4v-1.4l0.3-0.3l0.1,0.2l0.1,1.4
	L175.2,339.4L175.2,339.4z M157.6,334.6l1.3-0.6l0.6-2.4l2.8,2.5l0.1,1.3l0.8,0.3l-0.7,0.3l-0.9,1.1l-3.3-1.8l-0.5,0.4l-0.6-0.5
	L157.6,334.6L157.6,334.6z M149.6,318.1l-1.5-2.1l-0.9-0.4l0.9-1.2l1.7-0.2l0.9,0.8l-0.1,1.8l-0.4,0.5L149.6,318.1L149.6,318.1z
	 M132.8,324.7l1.9-0.3l0.5,0.4l-0.9,0.1l-2.6,1.8l1.6,1.5l4.4-0.2l2.7,1.4l-0.2,0.5l-2.9-0.6l-4.1,1.8l0.5,1.3l1.7,1.6l2.2-0.3
	l1.3,2.9l5.7-0.7l3.7-2.7l0.1,0.9l3.5,2l3.1-1.4l-1.1-1.3l-1.6,0.6l1.2-2.4l2.2,0.8l0.1-1.4l-3.3-2.1l-2-2.2l0.3-1.4l-1.4-6.4
	l-3.7-2.1l1.6,6.5l-1.6,0.8l-0.9-4.3l-2.4-1.6l0.6,2l-2.5,0.8l1.1-1.1l-2.8-1.9l-1.2,0.4l0.5,1.2l-1.5,0.2l0.7-3.6l-5.3,3.3l-1.4,4
	L132.8,324.7L132.8,324.7z M125.2,326.3l1.4-1.7l2.4,0.5l0.2-3.8l6.6-6.4l-3.3-3.6l-2.8,0.4l-2.3-1.9l-4.3,0.8l1.3,3.3l-2.2,4.3
	l0.1,1.5l-1.1,2.7l2.7,0.8L125.2,326.3L125.2,326.3z M268.7,354.1l-2-0.3l-1.5-1.1h-2.3l-0.1-0.6l1.2-0.4l0.1-1.3l-0.5,0.2l-0.2-0.9
	l-2.2,0.2l1.5-0.9l1.5-0.3l-0.9-0.3l0.9-0.7l-0.9-0.6l-2.6,0.5l0.6-0.8l0.6,0.3l-0.4-0.9l0.5-0.8l1.5,1.2l-0.8-1.3l0.4-0.2L262,344
	l2.4,1.5l0.2,1.2l-0.6-0.1l0.6,0.5l0.2,1.1l0.7-1.1l0.2,0.3l0.3-2.1l1.1,1.5l0.1-1.1l1.1-0.5l0.7,1.8v-1.8l0.7,0.6l1.6-0.5l0.2-1.3
	l0.9,1.1l1.6-0.5l-0.7,0.8l0.3,1.2l1.4,0.4l0.1,1.3l0.4,0.3l-2,2.8l-0.4-0.3l-1.6,1.6l-1.1-0.2L268.7,354.1L268.7,354.1z
	 M287.6,379.1l0.4-0.6v0.6C288,379,287.5,379.1,287.6,379.1L287.6,379.1z M284.7,370l-0.2-1.2l0.3,0.2l0.1-0.3l0.7-0.4l-0.1,0.7
	l-0.3,0.1l0.2,0.4L284.7,370L284.7,370z M286,371.9l-0.5-0.2l-0.2-0.6l-0.4-0.1l0.7-0.6l0.3,1.1l0.4,0.1L286,371.9L286,371.9z
	 M285.6,374l0.2-0.5l-0.2-0.3l0.1-0.1l0.6,0.5l-0.5,0.4H285.6L285.6,374z M286.9,375.5l0.2-0.2l-0.1,0.7L286.9,375.5L286.9,375.5z
	 M285.5,375.4l-0.2-0.4l0.2-0.2l0.3,0.5L285.5,375.4L285.5,375.4z M324.5,363.8l0.3-0.4l0.3,0.4H324.5L324.5,363.8z M324,366.8
	l0.9-0.4l0.5,0.5l-0.7,0.4L324,366.8L324,366.8z M324.1,369.3l0.1-0.6l-0.3-0.3v-0.6l1.3-0.3l0.4,0.4l-0.6,0.6h-0.5l-0.2,0.5
	L324.1,369.3L324.1,369.3z M321.3,363.8l-0.5-0.5l0.2-0.3v-0.2l0.4,0.3l-0.2,0.4L321.3,363.8L321.3,363.8z M318.8,371.9l-0.2-0.8
	l0.3-0.9l0.6-0.5l0.2,0.1l0.3-0.1l-0.3,0.5l-0.1,0.6L318.8,371.9L318.8,371.9z M316.2,373.7v-0.8l0.5-0.7l0.2-0.8l0.3-0.3l-0.3,1.5
	L316.2,373.7L316.2,373.7z M314.1,376.1l0.3,0.4v0.6l-0.6-0.4L314.1,376.1L314.1,376.1z M312,378.5l-0.1-0.4l0.6-0.4l0.1,0.7
	L312,378.5L312,378.5z M310.2,376.8l-0.1-0.4l-0.5-0.1l-0.2-0.9l-0.2-0.3l0.6-0.1l0.4-0.5l0.4,0.5v-0.7l0.4-0.2l0.3,0.6l-0.5,1.1
	l0.3,0.5l-0.4,0.1v0.5H310.2L310.2,376.8z M309.2,376.9l0.4,0.2l0.3-0.1l0.2,0.5l-0.3,0.2l-0.6-0.5V376.9L309.2,376.9z M307.5,375.8
	l0.4-0.3l0.4,0.2l0.1-0.1l0.2,0.1l0.1,1.1l-0.3,0.1l-0.8-0.3L307.5,375.8L307.5,375.8z M285.3,383.4H285l-1.2,0.3l-0.1,0.3l-2.2,1.1
	L281,385l0.2-0.3l-0.5,0.1l0.3-0.5l-0.4,0.1l-0.3-0.1l0.5-0.4l-0.6-0.4h0.6l0.8-0.7l-0.6-0.1l0.4-0.8l0.8-0.3l-1.6-0.6l0.5-0.8
	c0,0-0.6-0.1-0.7-0.1c-0.1,0,0.6-1.1,0.6-1.1l1.5,0.2l0.6-0.9l-0.8-0.2l1.6-1.3l0.1,0.5l0.3-0.7l0.3,0.6l1.1-0.3l0.6,0.7L286,378
	l0.6,0.2l0.1,0.8l-1.3,0.7l0.5,1.2v1.2L285.3,383.4L285.3,383.4z M299.4,408v-0.2h0.3l0.2,0.4l-0.1,0.1L299.4,408L299.4,408z
	 M327.8,406.9l-0.2-0.2l0.2-0.3l0.2,0.3l-0.1,0.1L327.8,406.9L327.8,406.9z M328.9,413.5l-0.3-0.2l0.3-0.4l0.1,0.4
	C329.1,413.2,328.9,413.5,328.9,413.5L328.9,413.5z M327.8,411.7l0.2-0.1l0.2,0.2l-0.1,0.3L327.8,411.7L327.8,411.7z M329.4,410.5
	l0.2-0.2l0.2,0.5l-0.2,0.3v-0.4L329.4,410.5L329.4,410.5z M328.2,408.2l0.1-0.2l0.2-0.1l0.2,0.2l-0.2,0.3L328.2,408.2L328.2,408.2z
	 M325.6,409.9h0.3l0.4,0.4l0.7,0.2l0.2,0.7h0.3l0.1,0.4h-0.5l-0.2-0.7l-0.6-0.3L325.6,409.9L325.6,409.9z M329.3,409.2l0.8-0.3
	l0.4,0.7h-0.7l0.1-0.4l-0.5,0.1L329.3,409.2L329.3,409.2z M338.2,416.6l0.7-0.3l0.7,0.2l-0.2-0.4l1.2-0.2l0.7-0.4l-0.7,0.8v0.5h-0.4
	l-0.9,0.6l-0.8-0.3L338.2,416.6L338.2,416.6z M332.1,415l-0.1-0.4l0.8-0.5l-0.3,0.7L332.1,415L332.1,415z M326.5,415.5l0.7,0.4
	l0.7-0.1l1.3,0.2l0.3,0.3l0.6-0.2l-0.2,0.5l-0.2-0.2l-1.6,0.3l-0.8-0.6h-1.1L326.5,415.5L326.5,415.5z M322.1,410.8l0.2,0.5
	l-0.5-0.2L322.1,410.8L322.1,410.8z M315.3,411.1l-0.7,1.4l0.2,0.5l-0.3,0.8l-1.1-0.8h-0.5l-1.1-0.8h-0.6l-0.1-0.7l0.3-0.5l0.3,0.2
	l0.4-0.2l0.6,0.4l2.3-0.5L315.3,411.1L315.3,411.1z M306.6,405.3l-0.5-0.4l-0.3-1.7l0.9-0.4l0.2-0.5v1.2l0.2,0.4L306.6,405.3
	L306.6,405.3z M306,409.9l-0.6-0.6v-0.8l0.2-0.4l-0.1-0.9l-0.4-0.3v-0.5l0.3,0.2l1.2-0.7l0.6,1.1l-0.1,2.5l-0.3,0.2l-0.2-0.2
	L306,409.9L306,409.9z M297.4,408.6l0.1-0.3l0.8-0.4v0.4l0.4,0.2l-0.3,0.7L297.4,408.6L297.4,408.6z M212.6,393l1.3-3.1l1.6-2.2
	l0.1-1.3l1.1-1.7l1.3-0.2l-1.7,4l0.1,0.5l0.7-1.3l0.8,0.4l-0.5,0.8l3.4,0.5l-0.7,1.8l1.6-0.4l-1.3,1.4l0.2,0.7l1.1-0.8l-0.2,2.9
	l-1.3-0.3l-0.3-2.4l-0.6,1.2l-1.8,1.1l1.4-1.6l-1.6,0.2l0.2-0.4l-1.8,0.3l-1.6-0.3L212.6,393L212.6,393z M205.6,388.4l1.1,0.6
	l0.3,0.5l1.4,0.4l0.9-0.1l-0.2-0.4l-0.5-0.1l-0.5-0.6l-2-0.5L205.6,388.4L205.6,388.4z M209.9,397.3l-0.2-0.5l0.7-1.4l0.1-0.4
	l0.4-0.5l0.2,0.5l-0.3,1.1l0.8-0.1l0.2,0.5l-0.8,0.7l-0.5-0.1L209.9,397.3L209.9,397.3z M205.7,395l1.3,1.2l0.6-0.1l0.5,0.5l0.1-0.5
	l0.7-0.4l-1.5,0.1l-1.1-0.2L206,395l0.1-0.6L205.7,395L205.7,395z M192.6,406.8v-0.3l1.3-0.4h1.5l-0.9,0.4l-1.3,0.1L192.6,406.8
	L192.6,406.8z M201.4,442.3l0.5,0.6l1.2-0.1l0.5-0.5l-0.7-0.2L201.4,442.3L201.4,442.3z M193.1,440.3l0.8,0.3l0.2,1.3l-2.5,0.3
	l0.6,0.4l2.8-0.2l0.5,0.7l1.1-1.2l0.6,0.5l0.6-0.5l1.9,0.4l-0.4-1.1l-1.1-0.2l-0.5-0.9l-2.3-0.3l-0.6,0.4l-1.3-0.3L193.1,440.3
	L193.1,440.3z M186.8,433.4l-0.7-0.5l0.5-0.8l0.5,0.8L186.8,433.4L186.8,433.4z M186.5,442.3l1.7,0.9l0.5-0.3h0.8l-1.8-0.9
	L186.5,442.3L186.5,442.3z M179.8,437.1v0.8l0.5-0.5C180.4,437.4,179.9,437.2,179.8,437.1L179.8,437.1z M177.5,437.2l0.3-1.3
	l5.3-0.7l1.8,1.1l1.5,0.1l2.8,2h0.6v0.5l1.1-0.1l1.2,0.9l-1.8,0.5h-3.5l1.4-1.1l-2-0.3l-0.3-1.1l-4.7-1.3l0.3-0.5h-1.5l-0.9,0.8
	C179.1,436.7,177.4,437.2,177.5,437.2L177.5,437.2z M168.6,469.5l-0.4-0.6l0.3-0.6l-0.4-0.5l0.3-0.1l0.6,1.5L168.6,469.5
	L168.6,469.5z M243.9,559.2l-0.8-1.3l-2-0.8l2,0.2l0.2,0.6l0.4-0.1l0.5,0.9L243.9,559.2L243.9,559.2z M212.1,553.2l-0.5-0.5l0.7-0.9
	l0.3,0.2v-0.7l0.2-0.1l0.1-0.2l0.5,0.3h0.6l0.1,0.6l-0.9,0.4h-0.4l0.2,0.4h-0.6l0.1,0.4l-0.3-0.1L212.1,553.2L212.1,553.2z
	 M209.5,551.8l0.5,0.7l0.5,0.3l0.3-0.4l0.5-0.1l0.7-1.3l-1.5,0.1c-0.1,0,0.5,0.6,0.5,0.6l-0.5,0.6L209.5,551.8L209.5,551.8z
	 M192.2,534.6l-0.7-0.4l0.3-0.7l-0.1-1.4l0.5-0.7l0.2,0.5l0.3,0.6l-0.5,0.5l0.4,0.5l-0.2,0.2l0.1,0.4l-0.3,0.1V534.6L192.2,534.6z
	 M192.9,536.8l-0.2,0.5l0.3,0.4l0.5-0.4l-0.3-0.4L192.9,536.8L192.9,536.8z M192.2,538.1l-0.4-0.5l0.3-0.1
	C192.1,537.4,192.2,538.1,192.2,538.1L192.2,538.1z M190.5,544.5l-0.2-0.9L190,544L190.5,544.5L190.5,544.5z M190.7,544.1l-0.1-0.4
	l0.3,0.2L190.7,544.1L190.7,544.1z M191.1,544.7l-0.3-0.4l0.3-0.1V544.7L191.1,544.7z M191.1,547.9l0.4-0.5l-0.1-1.7l-0.3-0.5
	l-0.5,0.9l0.3,0.3l-0.2,0.1l0.4,0.4l-0.1,0.8L191.1,547.9L191.1,547.9z M190.6,548.8l0.2-0.6l-0.7,0.2L190.6,548.8L190.6,548.8z
	 M191.2,550.6l-0.4-1.4l0.5,0.3l0.1,0.8L191.2,550.6L191.2,550.6z M192.1,554.8l-0.8-0.3l-0.1-0.6l0.8,0.6L192.1,554.8L192.1,554.8z
	 M194,555.7l0.1-0.7l1.3-0.8l-0.7-0.2l-0.6,0.3l-0.7-0.6l0.6-0.6v-0.6l-1.4,0.6l0.5,1.8l0.5-0.2l0.3,0.5l-0.3,0.1L194,555.7
	L194,555.7z M193.9,557l-0.9-0.2v-0.5l-0.5-0.9l1.8,0.9L193.9,557L193.9,557z M196.5,557.2l-0.1-0.5l0.6-0.7l-0.1,0.9L196.5,557.2
	L196.5,557.2z M194.7,556.7l0.4,0.8l1.1,0.1l-1.2-1.1L194.7,556.7L194.7,556.7z M200.1,560.4l-0.3-1.1l-2.2,0.3l0.8,0.2
	c0,0,0.3,0.8,0.3,0.7c0-0.1,0-0.8,0-0.8l0.8,0.8L200.1,560.4L200.1,560.4z M200.2,559.3l0.5,0.6l0.6,0.1l-0.1-0.7H200.2L200.2,559.3
	z M196.8,554.8l0.5,0.7l0.9-0.1l-0.1,0.5l-0.8,0.3l0.2,1.1l0.9,0.5l-2.2,0.1l-0.6,0.5l2.9,0.8l1.8-0.6l2.1,0.8l0.8-0.4l0.7,0.3
	l0.3-0.7l-1.4-0.1l-2.8-2.6l-0.5-1.1l0.4-0.1l-0.7-1.4l-0.7,0.3l-0.4-0.2l-1.2,0.9L196.8,554.8L196.8,554.8z M227.2,507l-0.4-1.6
	l0.4-1.1l2.9-2.5l1.3-0.2l1.1-0.7l0.1-0.5h3.4l0.3-0.8l1.2-0.6l0.1-1.3l0.8-0.9l0.4-0.8l0.4-0.4l0.1-2l0.6-0.8l0.3-2.8l-0.1-0.8
	l0.2-2.8l0.8-0.1l1.4-2.5l1.7-1.2l1.6-2.3l0.3-2.7l-1.1-2.3l-1.7,0.1l-2.5-2.3l-1.7-0.8l-2.6,0.1l-2.3-0.9l-1.3,0.6l-0.6-1.7
	l-0.5,0.2l-0.2-0.3l-3.4-1.3l-0.8,1.5h-0.5l-0.7,1.4l-0.1-1.1l-2.7,0.2l0.8-0.7l-0.7-0.7v-0.8l2.1-2.7l-0.7-0.2l-1.3-3.6l-0.3,0.3
	l-2-1.7l-2.7-0.9l-1.8,0.4l-0.9-0.4l-0.3,0.2l-1.2-1.4h-0.8l0.1-0.7l-2.3-1.8l-1.2,0.1l0.4-0.3l-0.6-1.1l-2.5-1.3l1.3-0.3h-2.8
	l0.5,0.3l-0.8,0.1l-1.1,0.4l-0.9-0.2l-0.4-0.6l-2.7,0.2l-0.3-0.9l-1.5-0.3l-0.6-1.2l-0.5,0.8l0.7,0.3l-1.3,0.3l-0.9,0.7l0.5,1.5
	l-0.4,0.9l-0.5-0.5l-0.5-0.4l0.1-0.7l0.5-0.4l0.1-0.6l-0.3-0.6l0.9-0.7l-0.6-0.5l-0.7,0.4l-0.2,0.5l-1.8,0.7H192l-0.4,0.7l-0.5-0.3
	l-1.1,0.5l-0.2,1.6l-0.6,0.2l-0.2,0.4l-0.7,0.4l0.1,1.1l-2-2.1l-1.2-0.1l-0.1-0.2h-0.6l-2.1,1.2l-1.3-0.4l-0.3-0.7l-1.4-0.9
	l-0.7-1.7l0.2-0.3l0.1-2.7l0.4-0.7v-1.6l-1.4-1.1l-2.1-0.1l-1.6,0.4l-0.9-0.2l-1.4,0.1l-0.3-0.4l0.8-0.7l0.2-2.4l0.1-0.8l0.1,0.9
	l0.7-1.6l-0.2-0.7l0.3-0.9l0.7-0.7l-0.2-0.9l-1.7-0.3l-0.8,0.4h-1.7l-0.4,0.5l-0.5,2.6l-0.7,0.3l-0.1,0.5l-0.6,0.3l-0.3-0.5
	l-3.3,0.8l-0.6-0.6l-1.2-0.3l-0.9-1.9l-1.1-1.4l0.2-0.3l-0.8-1.4l0.3-0.8l-0.1-1.4l-0.2-0.2v-1.3l0.6-0.9c0,0,0.1,0.6,0.1,0.5
	l0.3-0.9l-0.6-1.9l0.7-1.9l0.6-0.4v-0.3l0.6-0.1l-0.1,0.3l1.2-0.5l0.4-1.6l0.1,0.6l1.9-0.5l1.4,0.4l0.3-0.5l0.7,0.2l0.4,0.6l1.5,0.1
	l0.1-0.4l0.9,0.4l-0.4-0.6l0.4-0.9l-0.6,0.1L170,424l1.2-0.2l1.4-0.1l0.4-0.5l0.2,1.1l1.4-0.4l-0.1,0.3l0.8-0.1l0.2,0.3l1.2,0.4
	l0.3,0.4l0.6-0.1l1.1-0.6l0.8,0.7v0.3l0.5,0.4l0.4,0.2v0.8l-0.1,1.1l0.4-0.3l-0.2,0.9l0.4,0.9h0.2l0.5,1.6l0.3,0.1l0.3,0.6v0.3
	l-0.1,0.1l0.3,0.2l0.8-0.2l0.1-0.8l0.3-0.6l-0.2-1.4l-0.3-0.9L183,428v-0.4l0.1-0.1V427l-0.6-0.7l-0.3-1.1l-0.3-0.9l0.1-0.5v-0.6
	l0.2-0.3v-0.3l0.6-1.2l0.3-0.2h0.2l-0.2-0.4l0.2-0.2l0.6,0.1l0.9-0.7l0.4-0.1l0.1-0.5l0.9-0.6l0.7-0.2l0.3-0.4l0.8-0.6l0.6-0.1
	l0.4-0.3v-0.2H189l-0.1,0.1v-0.2l0.3-0.3l-0.4-0.2l0.5-0.1l0.4,0.3l0.5-0.5l-0.1-0.4l-0.3,0.3l-0.1-0.3H189v-0.6l0.3,0.4l0.8-0.3
	l-0.1-0.4l0.1-0.2l-0.1-0.5l-0.6-0.1l-0.1-0.3l0.3-0.7l-0.2-0.1l0.2-0.6l-1.5-0.8l0.1-0.4v0.4l0.9,0.3v-1.6l0.5-0.5V409l0.2,0.2
	l-0.3,0.4v0.4h-0.1l0.2,0.6l-0.1,0.6l0.6,0.7l-0.3,0.1l-0.2,1.1l0.2,0.3l0.2-0.7l0.5-0.7l0.4-1.2l-0.8-1.5l0.1-0.1l0.8,0.5l0.1,0.5
	l0.9-1.5v-0.3l0.2-0.2v-1.1l-0.4-0.4l0.7-0.8l0.9-0.2l0.3-0.3h0.4l1.7-0.3l0.1-0.4l0.3,0.3l0.5-0.2l0.1,0.2h0.5l0.4-0.3l-0.1-0.3
	l-0.3,0.3l-0.4-0.2l-0.5-0.8l0.3-0.5l-0.3-0.7l0.6-0.3l0.8-1.3l0.3,0.3l0.9-0.6l0.4-0.9l0.6,0.6l2-0.9l-0.3-0.3l0.1-0.5l0.5,0.1
	l0.9-0.3h0.5l1.5-1.3l0.2,0.1l-0.6,0.6v0.2l0.6-0.1l1.4,0.2l-0.8,0.1l-0.3,0.4l-0.3-0.4l-1.6,0.9l-0.1,0.3H204l-0.4,0.8l0.7,1.4
	l0.8-0.4l1.1-1.2l0.1-0.4l1.3-0.2l2.2-1.1l0.8-0.1l-0.5-0.2v-0.5l-0.6-0.1l-0.2-0.4l-0.6,0.4l-2.1-0.6l0.3-0.3l-1.2-0.3l-0.5-1.2
	l0.1-0.5l-0.7-0.1l0.6-0.4l0.2-0.8l-0.7-0.2l-0.6,0.2l-1.1-0.7h1.8l1.3-1.1l-0.1-0.8l-1.7-0.6l-1.3,0.2l-2.4,1.3l-1.9,1.4l-0.5,0.9
	l-1.6,1.4l1.3-1.4l0.6-0.8v-0.5l0.5-0.1l0.7-1.3l1.3-1.1h0.7l1.1-1.7l3.8-0.4l0.9,0.3l2-0.1l0.3,0.3l1.7-0.4l0.4-0.4l0.1,0.6
	l2.2-2.3l2.1-0.5l1.8-1.6l-0.5-2.1l0.4-0.2l-0.5-1.1l-1.5,0.3l-0.2-1.6l-2.4,1.1l-1.9,1.2l0.9-1.6l2.4-1.2l0.5,0.1l0.1-0.6l-2.9-1.6
	h-1.2l0.3-1.1l-1.4-0.5v-0.5l-0.8-0.1l0.2-0.9l-1.4-0.3h1.4l0.6-1.1l-1.3-0.8l0.8-0.7l-1.8-1.1l0.6-0.6l-0.1-0.3l-1.4-0.1l1.1-0.2
	l-0.5-1.2h-1.4l1.1-0.6l-1.6-1.6v-1.2l-1.6,1.5l0.6,0.7l-1.1,2l-0.7-0.2l-1.9,1.9l-0.3-1.3l-0.3,0.3l-0.2-1.3l-2,0.5l1.3-1.4l-0.8-2
	l0.3-0.5l-0.3-1.3l0.4-0.9l-0.5-0.7l-0.1,0.5l-2.5-0.5l-0.8-2.4l-2.1-1.3l-1.7,0.7l-3.5-1.1l-0.9,1.1l0.8,1.7l0.3-0.1l-0.9,2.7h0.6
	l0.8,3.2l-1.3-0.1l0.4,0.8l-1.5,0.7l0.1,0.8l1.6,1.3l1.2,5.2l0.5-0.5v1.1l-0.6-0.2l-1.3,1.4l-3.3,2.2l1.2,1.6l0.1,2.7l0.6,1.1
	l-1.2,0.8l0.7,0.8l-0.4,0.6l-0.6-0.9l-0.5,0.6v0.7l-1.1-0.6l-0.3-1.1l-0.9-0.7l-1.1,0.1l0.9-0.5l-1.4-1.5l0.3-1.1l-0.2-1.8l0.2-1.4
	l-0.2-0.9l-1.2-0.4l-3.1,0.1l-0.1-0.4l-3.1-1.4l-0.6-1.3l-4.1-2l-2.1,1.1l0.3-1.1l-0.4-1.1v-1.1l-0.6-1.6l-1.9-0.2l-0.5-0.8l0.5-4.6
	l0.7-1.3l-0.4-0.7l1.4-0.9l1.5-3.2l2.4-0.3l-0.3-1.6l-2-0.9l-1.9-1.4l2.1,1.1h1.2l1.1,0.9l1.2-2l1.8,0.4l2.2-3.8l-3.2-0.4l-1.6-1.9
	l1.2,0.1l2.1,1.7l1.4-0.2l1.3-2.7L175,344l1.7-0.4l0.6,1.2l1.8-0.1l-0.4-1.7l1.2,1.1l2.5-2.4l0.1-1.5l-1.2-1.4l-0.4-2.1l0.6,0.2
	l1.3-1.4l-1.2-0.2l0.8-0.9l-1.8-0.6v-1.6h-1.6l-2.1-0.6l-0.3,2.3l1.1,1.1l-0.2,0.7l-1.2,0.6l-0.5,2.5l-0.6,0.9l-0.9,1.7l-1.8-2.6
	l0.2-1.7l0.9,0.3l-0.6-2.1l-1.6-1.5l-1.4,3.6l-0.3-1.1v-0.7l-1.1-1.9l0.6-0.2l-0.7-0.9l-0.8,0.3l-0.8-0.7l0.7-1.1l-0.3-0.7l0.9-0.3
	l-1.8-2.9l0.1-1.3l-1.3-2.3l-0.9,0.4l-0.1-1.1h-0.9l-0.8,1.7l0.3,1.3l-0.6-0.3l-0.4,2l0.6,1.5l-1.1,1.3l0.4,1.1l3.6,1.6l-0.1,1.2
	l-0.3-0.6l-0.9,2.5l0.8-0.2l0.3-0.6l0.3,1.5l-1.5,2l-0.9-0.1l0.1,2.7l-1.5-0.6l0.6-2.9l-0.8,0.9l-1.2-1.6l-1.6,0.5l1.1,1.8l0.8-0.3
	l0,1.1l-0.7-0.1l-1.1-1.6l0.3,1.1l-2.6-0.3l-2.8,0.5l-1.6-1.8l-0.3,0.5l-1.2-0.1l-1.2-1.5l0.3-0.3l-1.2-1.8l-2.1,1.4h-0.9l-0.6,1.5
	l1.2,0.4l0.4-0.2l-0.4-0.4l1.6-0.2l0.3-0.8l0.9-0.2l-0.8,1.8l-1.7,0.4l-0.5,1.2l0.6,0.5l-0.1,0.7l0.6,1.7l-0.9,0.6l-0.7-1.1l0.7-0.3
	l-0.9-1.6l-0.3,0.4l-0.3-1.1h-0.8l-0.7-0.8l-0.8,0.9l-2.7,0.4l-3.7-1.1l0.3-0.3l0.1-0.6l1.1-0.3l0.2,0.2l0.4-0.7l-1.2-1.6l-1.1-0.5
	h-0.7l0.2,0.3l-1.5-0.1l-2.1-1.3l-2.1-0.5l-1.5-1.6l-2.2-0.1l-0.2,1.3l-0.6,0.6l-1.2-0.1l0.6-1.3h-0.6v-1.4l-0.3,0.2l-0.3-0.1v0.3
	l-0.6,0.7l0.3,0.1l-0.5,0.4l0.3,0.4l-0.4,0.2l0.4,0.1l-0.5,0.3l-1.3-0.8l-0.7-1.6l-0.3-1.4l-1.3-1.1l0.2,1.1l0.5,0.4l-1.1,0.4
	l-1.1,1.6l0.1-1.1l-1.7,1.1l-1.2,1.9l-0.1-1.1l-2.5,1.7c0,0,1.3-1.9,1.4-1.9s1.5-0.1,1.5-0.1l2.1-2.3l-0.3-0.4l-1.7,0.5l-2,1.9
	l-0.4-0.2l-2.5,2.6l0.6,1.8l-0.8-1.1l-0.9-0.1l0.3,0.9l-1.8-1.2h-1.3l-2.6-2.5l-2.6-0.1l-2.6-1.9l-3.1,0.6l-1.2-0.8l-1.2,0.3
	l-3.2-1.6l-1.5,0.4l-2.9-2l-2.4,0.3l-1.2-1.1l-0.5,0.9l0.2,0.6l-1.6-0.6l1.3-0.8l-1.6-1.1l-1.5,2.3l-1.9,0.3l-0.4-1.3l-0.7,0.9v1.2
	l-0.5-1.1l-2.7,1.6l0.6,1.1l-0.8-0.2l-0.9,1.1l-0.4,2.1l-1.1,0.6l-2.8,0.5v1.5l-0.7,0.4l0.9,0.4l0.2,0.4l0.9,0.4l1.6,1.5l0.4,0.9
	l0.2,0.8l0.9,0.3l0.6-0.3l0.1,0.5l1.3-0.1l0.2,0.3l-0.5,0.5l0.7,0.7l0.6-0.3l0.5,0.2l1.3-0.2l-0.6,0.4h0.6l-0.1,0.3l-1.3,0.2
	l-1.1-0.5l-0.8,0.4l0.2,0.3l0.3-0.3l0.9,0.4l-0.3,0.5l-0.3-0.4l-0.4,0.7h-2.6l-0.4-0.5l0.3-0.4l-0.3-1.2l-1.2,0.2l-1.4,1.2l0.5,0.4
	l-0.8-0.1l-2.2,1.7l-0.5,0.1l1.6,0.9l0.9,0.1l-0.4,0.6l-0.3-0.1l0.6,1.1l-0.2,0.5l2.5,0.7l0.5-0.4l0.9,0.1l0.7,0.5l-0.2-0.6l0.6,0.9
	l1.4-1.6l0.5,0.1l0.5-0.4l0.6,0.5l-0.9,0.7l-0.6-0.1v0.4l0.5,0.2l0.5,1.9l-0.6,0.9l-1.4,0.1l-0.1-0.2l-1.2,1.3l-0.5-0.1l-0.9,0.4
	l0.1,0.7l-0.6-0.1l-1.6,1.4l-0.3,1.4l-0.6,0.1c0,0-0.1,0.7,0,0.7s1.4-0.5,1.4-0.5l-0.1,0.4l-0.8,0.4l0.4,0.3l0.4-0.3l0.2,1.3
	l0.4-0.3l0.1,0.1h0.4l-0.3,0.5l1.6,0.3l-1.3,1.4l0.9,0.8l-0.4,0.2l1.5,0.6l0.7-1.4l-0.3-0.5l1.3-1.4l0.8-0.3l-0.8,0.4l-0.8,1.4
	l0.3,0.6l-0.1,0.3l0.8,1.2l-0.6,0.6l0.5,1.2l-0.6,0.4l0.6,0.2l1.3-0.9l0.6-0.9l-0.1,0.9l0.6,0.4l0.3-0.5l0.9,1.5l0.3-0.7l-0.2-0.3
	l0.6-0.6l-0.1,0.6l0.5,0.3l1.9-1.3l-1.1,1.7l-0.3,2.4l-1.5,1.9l-2,1.1l-0.7,1.7l-0.1-0.4l-2.2,0.9l-0.1,0.5l-0.9,0.5l0.1,0.7
	l0.3-0.5l0.4,0.2l0.3-0.6l0.2,0.4l0.5-0.2l0.7-1.2v0.5l2.3-1.1l0.1,0.4l0.5-0.5l1.1-0.7l-0.6-0.7l0.5,0.2l1.3-0.5l0.5-0.7l0.4,0.1
	l1.3-0.9l-0.3-0.4l2-1.6l1.4-1.6l0.8-0.3l-0.5-0.8h-0.4l0.2-0.9l0.7-0.8l0.6-0.2l0.4-0.8l1.2-1.9l0.1-0.4l1.4-0.9l-0.1-0.8l0.7-1.6
	V357l0.2,1.1l-0.6,1.5l0.1,0.6h0.5l1.2-0.7l-0.9,1.1l1.2,0.7l-0.9-0.2l-0.4,0.3l-0.2-0.4l-1.5,0.8l0.1,0.8l-0.7,1.7l0.3,0.3l0.9-0.4
	l-0.3,0.7L86,365l-0.2,0.5l0.3,0.2l1.2-0.1l0.7-1.1l0.1,0.4l0.3-0.8l0.8-0.8l0.8,0.2l0.6-0.5l-0.1-0.3l0.5-0.6l-0.1-0.1l-0.7,0.1
	l0.5-0.4l-0.5-0.4l0.3-0.3l-0.1-0.3l0.8-0.7l-0.1,0.9l1.3-0.2l0.6-0.3l-0.3,0.6l1.9,1.6l0.3-0.3l1.3,0.8l0.1,0.4l2.1-0.3l0.9,0.4
	l0.9-0.1l-0.2,0.2l1.2,0.4l1.2-0.8l0.7,0.5l-0.2,0.8l-0.2-0.9l-0.2,0.8l-0.4,0.3l1.8,0.8l0.5-0.7l0.6-0.2l-0.3-0.4l0.4,0.4l-0.6,0.5
	l-0.1,0.8l0.9,0.8v0.3l1.3,0.7l0.6-0.3l-0.6-1.1l-0.5-0.2l0.6-0.1l0.4,0.4l0.2-0.3l0.4,1.4l0.4-0.1l0.4,0.5l0.1-0.8l-0.4-1.5V365
	l0.7,2.3l0.8,0.4l0.7,0.9h0.4l0.2,0.9l0.4,0.4l-0.6,0.1l0.4,0.4l0.3,1.1l0.8,0.2l0.1,0.5l0.9,0.6l-0.7,0.5l-0.2,1.2l0.2,0.1l0.5-1.1
	l1.1-0.2l0.3,2l-0.3,0.7l1.1-0.2v0.7l-0.6,1.1l0.9,0.2l1.1,1.9h0.3l-0.2,1.1l0.6,0.9l1.1,0.2c0,0,0.1,2,0.2,2c0.1,0,0.5,0,0.5,0
	l-0.3,0.8l0.8,0.7l0.9-0.2l0.5,0.6l-0.5,0.2l2.2,0.3l-0.1,0.9l0.6,0.3l0.3-0.4l0.5,1.3l0.5-0.5l1.1,2.2l-0.2,0.4l0.4,1.1l-1.1,0.7
	l0.5-1.5l-2.7-0.3l-0.1,0.6l1.3,2.5l-0.1,0.8l0.5,0.3l-0.4,0.2l-0.5,4.7l0.1,0.4l-0.5,1.2l0.7,2.5l-0.1,1.3l-0.4,0.7l0.9,1.5
	l-0.2,0.7l1.6,2.3l0.3-0.4h0.8l-0.6,0.5v0.3l-0.3-0.1l0.4,1.3l0.6,0.3l-0.3,0.4l1.9,2.4v0.9l1.5,0.2l1.1,0.6l0.2-0.2l0.4,0.6h0.5
	l1.2,1.2l0.1,0.9l1.8,3.4l0.2,0.9l1.1,0.5l1.3,1.7l-0.3,0.8l-0.9,0.1l2.2,1.7l0.3-0.3l0.7,1.2h0.3l0.4,1.1l-0.1,1.2l0.3,0.1l2.1,1.8
	l0.5,1.1l0.5-0.4l0.1-0.6l-0.9-1.1H143l-0.5-0.5l0.2-0.5l-0.9-1.8l-0.3-1.2h-0.3l-1.2-1.6l-0.2-0.9l-2.1-2.1l-0.3-1.9l-0.3-0.2
	l0.1-1.1l2.2,0.8l1.1,3.3l1.7,1.9l0.8,0.3v0.8l2,1.7l-0.3,0.8h0.5l0.7,0.7l0.7,0.4v0.4l3.1,2.9l0.7,2.3l-0.2,0.6l0.1,0.2l-0.4,0.4
	l0.2,0.9l2.2,1.2l0.3,0.9l2.5,0.5l0.7,0.8l4.9,2.1l1.9,0.1l1.3-0.8l2.1,0.6l2.8,2.6h1.6l0.4,0.5h0.8l1.2,0.7l1.1-0.5l0.4,0.6
	l-0.3,0.1l2.4,2.5l-0.1,1.4l0.9,0.6l0.1-0.5l1.8,1.3l0.3,0.8l2.4,0.5l0.6,0.7l0.3-0.1l0.4,0.7l0.8-0.3l-0.6-0.8l1.6-1.3l2.1,0.7
	l-0.5,0.5l1.2,2.1l-0.1,3.4l0.6,0.1l-0.7,1.1l-0.1,0.7l-1.2,0.2l-0.1,1.1l-0.5,0.1l0.1,0.6l-1.6,0.6v1.1l-0.6,1.3l-0.5,0.1l0.1,1.8
	l0.6,0.6l0.4-0.5l0.3,0.6l-0.7,1.1l-1.3,1.2l0.6,1.7l-0.3,0.3l2.2,1.6l0.1,1.3l0.8,0.7l1.5,4.5l2,3.1l-0.6,0.5l6.3,4.3l1.8,2.1
	l0.9,4.4l-0.6,2.2v1.3l-0.3,2.9l0.1,0.9l-1.3,3.9l0.2,2l-0.5,0.2l0.3,4.3l-2.3,7.2h-0.6l0.3,4.3l-0.4,0.6v2.7l2,0.3l-1.4,5.1
	l0.7,0.8l-0.9,0.9l-0.3,2.3l-0.6-0.2l-0.6-1.1l-0.9,2.2l1.5-0.3l0.2,0.9l-0.5,0.7l1.2,1.2h-1.3l0.4,2.6l0.6-0.5l-1.1,2.3l1.1,1.3
	l-0.6,0.3l1.6,2.4l0.8-0.3l-0.1,1.6h1.3l0.6,0.8l-1.4,1.2l-0.1-0.2l-0.1,0.4l1.6,0.6l0.4-2.4l1.7-0.7l0.3-0.5h0.3l0.8,0.2l-0.8-1.5
	l-0.6-0.1l0.6-0.3l-0.7-1.1l0.9-1.5l1.4-0.9l0.2-1.4l2.6-2.4l-0.3-0.8l0.4-1.1l-0.3-0.2h-1.1l-1.3-2l1.7-2.1h1.1l-0.2-0.6l0.6-0.7
	v-1.5l1.3-1.1l-1.1-0.7l0.7-0.3l0.7,0.6l0.4-0.6l-0.6-0.7l-0.5,0.2l-0.7-0.5l0.1-2.2l2.7,0.7l1.2-0.7v-3.6l1.6,0.4l4.8-1.2l0.1-0.6
	l1.3-1.5v-1.3l-0.5-0.1l-0.5-0.8l0.4-0.7l-1.9-1.6v-1.3l0.9,1.3l1.5,0.3l3.1,0.7l0.7-0.9l0.7-1.5l0.8-0.5l1.1-2l1.5-0.9l2.2-4.3
	l0.9-0.6L227.2,507L227.2,507L227.2,507z M184.6,401.8l0.6-0.8l2.1-0.5l1.2,0.3l-0.2-0.5l1.4-0.4v1.7l-2,0.5l-0.8-0.3l-1.5,0.4
	L184.6,401.8L184.6,401.8z M179.5,404.7l0.5-0.5l0.9,0.1l0.8-0.8l0.3-0.4l1.3,0.1l1.1-0.6l1.4,0.1l-2.3,1.7H183l-1.4,0.8h-1.4
	L179.5,404.7L179.5,404.7z M167.5,395l4-2.7l0.7-0.9l0.9-0.1v-0.8l1.5,1.5v-0.9l0.8,0.2l1.1,1.6l1.1-0.2l0.5,2.8l5.3,1.3l1.3,2.1
	l-0.6,0.7l-1.9-1.5l0.4,1.2l-0.7,1.2l0.1,1.4l-1.1,0.7l-0.6-1.9l-0.6,0.2l-0.7,0.6l0.2-0.9l0.7-0.6l-0.3-0.9l0.2-0.3l-2.3-1.1
	l0.1,0.7l-0.6,0.1l-0.3,0.7l-0.2-0.3l-0.8,1.8l0.2,2l-0.9,2.4l-1.1,0.1l-0.3-1.2l0.2-0.9l-0.2-0.7l1.2-3.9l-1.2,1.1l0.9-1.9l0.9-0.3
	v0.3l2.1-0.7l1.4,0.2l-0.6-1.1h-0.7l-0.2-0.4l-3.4,0.5l-1.4-0.9l1.2-1.2l-1.8,0.9l-1.5,0.9l-0.9-0.7l-1.3,0.6L167.5,395L167.5,395z
	 M138.8,404.7l0.9,0.6l0.6-0.3l-0.2,0.6l0.4,0.3l-0.4,0.8L138.8,404.7L138.8,404.7z M156.4,380l0.6,0.8l0.8,0.1l0.7-1.4l1.2,0.5
	l-0.4-0.7l0.1-0.7l-0.6-0.3l0.9,0.1l-0.2,0.8l0.6-0.3l-0.1,0.5l0.2,1.6l0.4,0.3l0.3,1.9l1.2,2v1.3l-0.8,1.4l-0.1-3.3l-0.3,0.3
	l-0.7-1.4l-0.2,0.4l-1.4-2l0.5-0.7H157l0.4,0.3l-0.3,1.4l0.2,1.2h0.9l0.6,1.3l-0.2,0.6l1.2,1.4l-0.8,0.3l-0.8-2.7l-1.4-0.6l-0.1-2.6
	l-0.8,0.1l-0.4-0.6l0.9-0.3l-0.8-0.6L156.4,380L156.4,380z M157.1,372.8c0-0.1,0.6-1.1,0.6-1.1l0.3,0.1l0.8-0.8l-0.1-0.4l0.6-0.4
	l-0.2,0.7h1.6v0.3l-0.7-0.3l-0.8,0.7l-0.4,0.1l-1.1,0.9h-0.2L157.1,372.8L157.1,372.8z M141.4,367.2l2-1.9l0.1-0.6l0.7-0.7l1.2,0.2
	l-1.2,0.8l0.8,0.1l-0.1,0.4l1.3-0.2l2.4,0.4h-2.2l-0.7,0.6l-1.4-0.1l-1.5,0.6l0.2,0.5l-1.2,0.1L141.4,367.2L141.4,367.2z
	 M131.5,359.5l3.6,0.7l1.8-2l-2.5-3.1l2.2,1.8l0.4-0.9l0.7,1.8l0.7-0.6l-0.1,0.8l1.7-0.4l1.1-1.6l3.1-0.2l0.2,0.6l-2.6,0.6l-2.2,2.7
	l-1.6,0.4l-0.3,1.1l-3.2,0.4l-2-1.7l-0.9,0.1L131.5,359.5L131.5,359.5z M122.6,346v-1.4l1.7,0.1l5.2-2.5l1.5,0.4l-2.2,1.7l3.2,0.2
	l0.9-0.9l-1.2,2.9l-1.7,0.2l0.3,1.4l-2.8,1.8l1.3-2.6l-1.7,0.8l-0.2,1.1l-2.3-0.5l2-2l-0.5-0.6l1.8-0.4l-2.7-0.8l-2.1,0.6L122.6,346
	L122.6,346z M420.2,278.7l2.3-2.1l-2.2-1.4l-1.3,0.8L420.2,278.7L420.2,278.7z M430.5,284.4l-1.4,0.5l-4.8-1.6l-1.2-3.4l-1.8-0.2
	l2.5-2.4l-0.8-0.8l2.6-2.1l4.2-0.1l1.3,2.2l-0.5,5.2l-1.1-0.5L430.5,284.4L430.5,284.4z M430,290.2l0.9,0.6l1.6-1.6l6.2-2.1
	l-1.9-4.2l-1.6,0.2l-0.4-2.7l-0.9,1.3l-0.5-0.5L430,290.2L430,290.2z M494.7,305.1l1.3,0.8l2-0.1l3.6,1.7l-1.7,2.1l-3.6-1.5
	L494.7,305.1L494.7,305.1z M488.1,301.9l2.6,1.2l2.6,2.1l-1.1,0.6l0.3,0.8l-1.5,1.3l-1.6-0.9l0.3-2.8L488.1,301.9L488.1,301.9z
	 M481.4,306.2l0.8-3.3l1.9-1.5l2.2,3.2l1.1,0.2v-2.7l2,2l-0.3,2.5l1.5,1.7l-1.9-0.8l-2.3,1.6l-0.4-1.4l-0.8,2l-1.8-0.5l-0.4-1.4
	L481.4,306.2L481.4,306.2z M480.1,306.1l-0.5-0.5l0.3-2.3l0.7,1.3L480.1,306.1L480.1,306.1z M479.7,312.2l0.8,0.4l0.4,1.2
	L479.7,312.2L479.7,312.2z M447.3,311.8l0.5-0.5l-0.2-0.7l1.9,0.4l-0.8,1.8L447.3,311.8L447.3,311.8z M486.7,313.5l-0.4-0.3v-1.4
	l0.8-0.4l0.5,1.4l-0.6,0.4L486.7,313.5L486.7,313.5z M485.4,315.8l1.2-0.3l0.5-1.6l2.2-0.3l1.7,3.7l-4.1-1.5l-1.2,0.4L485.4,315.8
	L485.4,315.8z M485.4,320.1l1.5,0.1l-0.3,0.8l-1.5,0.6L485.4,320.1L485.4,320.1z M530.2,382l0.4-0.3l0.8,0.1l-0.3,0.5L530.2,382
	L530.2,382z M521.4,376.4h0.7l0.4,1.7L521.4,376.4L521.4,376.4z M506.9,387.8l0.6-0.1l0.5-0.9l-0.1,1.1l-0.9,0.5L506.9,387.8
	L506.9,387.8z M506,389.9l0.3-0.7v0.6L506,389.9L506,389.9z M502.2,394.9l0.6-0.7l-0.3,0.7H502.2L502.2,394.9z M499.2,397.5l0.6-1.1
	l0.7-0.3l-0.6,0.8L499.2,397.5L499.2,397.5z M495.6,399.4l1.3-1.6l0.5,0.2l1.1-0.5l-1.8,1.2l-0.8,0.9L495.6,399.4L495.6,399.4z
	 M493.5,401.1l1.2-1.6l0.1,0.5L493.5,401.1L493.5,401.1z M488.4,396.5l0.9-10.8l-1.1-1.3l0.4-4.1l0.9,0.1v-1.8l0.9,3.9l-0.2,1.3
	l2,7.2l-1.6-1.3l-1.3,3.6l1.6,3.5l-1.3-1.4l-0.6,1.2L488.4,396.5L488.4,396.5z M485.9,405.3l0.1-0.9l-0.4-0.6l0.8-2l1.4,0.1l0.5-4.2
	l3.5,2.9l1.5-0.6l-0.3,1.3l1.1,0.5l-2.5,0.9l-1.1,1.9l-3.8-1.3l0.6,1.4L485.9,405.3L485.9,405.3z M473.8,418.2l2.1-2.4l3.3-0.4
	l0.7,0.6l0.4-1.1l1.6-2.1l1.3,0.7l3.1-4.3l-0.1-2.2l1.6-1.3l1.4,3.2l-0.7,2.1l-0.7,0.4l-0.4,3.9l-0.7,1.5l-0.4-1.1l-1.3,1.4
	l-2.7-0.3l-1.6,2.6l-0.5-2.2L473.8,418.2L473.8,418.2z M476.4,420.4l-1.1-1.3l3.1-1.1l-0.4,1.6l-1.1-0.2L476.4,420.4L476.4,420.4z
	 M472.6,423l0.2-3.5l-0.9,0.9l-0.1-1.1l1.8-1.1l1.7,1.6l-1.5,2.9L472.6,423L472.6,423z M459.5,437.1l-1.3-2.4l2.3-2.4l0.5,0.4
	l-0.8,3.2C460.2,435.9,459.5,437,459.5,437.1L459.5,437.1z M442.6,440.9l1.3-0.8l2-0.1l0.1,0.4l-0.7,1.4l-1.2,0.8l-1.3-0.5
	L442.6,440.9L442.6,440.9z M480.2,469.9l-0.8-0.8l1.4,0.5L480.2,469.9L480.2,469.9z M479.8,470.6h1.5l0.3,0.3L479.8,470.6
	L479.8,470.6z M469.8,465.3l-0.2-0.5l0.4-0.4l0.1,0.6L469.8,465.3L469.8,465.3z M468.7,466.7l-0.4-0.2l0.3-0.9l0.7-0.5l-0.3,0.4
	l0.3,0.6L468.7,466.7L468.7,466.7z M464,450.5l-0.3,0.2l-2-2l0.3,1.1l-1.3-0.8l-0.7,0.4l-0.8-0.8l0.7-0.6l-1.1,0.2l-0.7-2.4l0.5,0.1
	l0.5-3.5l1.7,0.4l0.5-0.5l0.3,2.3l-0.3,1.2l-1.2,1.6l0.9,1.7l0.9-0.4l1.5,0.6l-0.4,0.3L464,450.5L464,450.5z M461,449.7l0.2-0.1v0.4
	L461,449.7L461,449.7z M460,451.2l-0.3-0.5l-0.9-1.3l1.6,0.5l0.1,0.8L460,451.2L460,451.2z M462.9,450.7l1.1,1.2l-0.7-0.4l-0.5,0.1
	L462.9,450.7L462.9,450.7z M464.4,450.9l1.1-0.4l0.4,1.2l0.3,0.9h-0.6l-0.2-0.7L464.4,450.9L464.4,450.9z M464.4,452.4l0.5,0.1
	l0.7,1.5l-0.8,0.2l0.1-0.6L464.4,452.4L464.4,452.4z M460.9,458.4l0.7-1.6l1.6-0.7l0.3,0.8l2.4-1.4v-0.9l1.5,3.2l-0.5,1.3l-0.3-0.9
	l-0.7,2.1l-0.3-0.6l-1.3-0.2l-0.4-0.9l0.6-0.9l-2,0.1l-0.4-0.3L460.9,458.4L460.9,458.4z M463.7,454.6l0.8-0.4v0.6l-0.4,0.1
	L463.7,454.6L463.7,454.6z M463,454.9c0.1-0.1,0.6-2.5,0.6-2.5l0.2,1.4L463,454.9L463,454.9z M462.7,452.9l0.4,0.2l-0.4,2.4
	l-1.2-1.1l0.5-0.3L462.7,452.9L462.7,452.9z M460.8,453.8c0-0.1,0.2-2,0.2-2l1.8,0.6l-0.8,1.3L460.8,453.8L460.8,453.8z
	 M454.2,456.4l2.9-2.6l0.3-1.5l0.1,1.6l-2.7,2.5H454.2L454.2,456.4z M523.1,490.6l0.6,0.6l-0.5,0.1L523.1,490.6L523.1,490.6z
	 M522,489.1l0.7,0.5l-0.5,0.3L522,489.1L522,489.1z M537.7,491.4l0.5-0.2l1.9-0.5l-1.5,1.2L537.7,491.4L537.7,491.4z M536.4,493.3
	l1.6-0.9l0.4,0.9l-1.3,0.5L536.4,493.3L536.4,493.3z M518.5,496.7h0.9l1.2,1.3l2.3,1.7l-2.7-0.8L518.5,496.7L518.5,496.7z
	 M515.2,482.4l0.9,0.2l0.5,0.7L515.2,482.4L515.2,482.4z M512.8,480.8l0.9,0.2l0.8,0.7l-1.2,0.1L512.8,480.8L512.8,480.8z
	 M514.2,479.9l0.8,0.4l0.3,1.1L514.2,479.9L514.2,479.9z M511.4,478.8l0.7,0.1l0.9,0.8L511.4,478.8L511.4,478.8z M508.6,477.3
	l0.9,0.5l0.1,0.5L508.6,477.3L508.6,477.3z M500.2,481l0.7,0.1l-0.2,0.5L500.2,481L500.2,481z M506.2,475.7l1.4,1.1l0.3,0.7h-0.8
	L506.2,475.7L506.2,475.7z M503.5,474.7l-0.5-1.6l-1.2-0.7l1.8,0.9l0.3,0.9L503.5,474.7L503.5,474.7z M497.4,475.7l1.5,0.1l0.9-0.4
	l0.8,0.4l1.3-1.8l0.8-0.1v1.7l-3.3,1.5L497.4,475.7L497.4,475.7z M473.4,470.2l0.4-0.8h0.7l0.6-0.7l1.4,0.7l0.8-0.1l0.4,1.2
	l-0.2,0.6l0.4,0.9l0.4-0.2l0.6,1.1l0.6-0.1l1.3-1.4l0.8-0.2l0.1-0.4l0.9-0.6l2.2,1.3h1.1l1.2,0.4l4.5,1.6l2,1.7v0.7l2.4,0.8l0.4,0.9
	l-1.2,0.1l0.3,0.9l1.3,0.8l0.7,1.3h0.9l0.1,0.6l1.9,1.1l-0.8,0.5l-0.7-0.4l-2.7-0.3l-2.2-2.7l-2.3-0.9l-1.8,1.4l0.4,0.7l-2.8,0.2
	l-1.8-1.6l-3.3,0.3l1.8-1.7l-1.1-2.3l-4.9-1.6l-1.1-1.7l-1.1,1.7l-1.3-2.2l2.5-0.6H475L473.4,470.2L473.4,470.2z M472.4,468.5
	l0.4-0.3l0.8,0.5L472.4,468.5L472.4,468.5z M469.4,469.4l-0.8-2.4l1.4-1.1l0.2,0.2l-0.4,0.9l0.4,0.7l-1.1-0.2l0.1,1.2
	C469.4,468.6,469.4,469.4,469.4,469.4L469.4,469.4z M471.6,470.8l0.7-0.4v0.7L471.6,470.8L471.6,470.8z M468.4,470.1l1.2,0.2
	l-0.6,0.4L468.4,470.1L468.4,470.1z M469.2,473.3l0.3-0.4v0.4H469.2L469.2,473.3z M469.1,472.9l0.5-0.8l1.8-0.1l1.3,0.5l0.4,1.3
	l-1.7-0.9l-0.5,0.2l-0.6-0.3l-0.5,0.2l-0.3-0.2L469.1,472.9L469.1,472.9z M464.6,471l-0.3-0.6l1.3,0.3L464.6,471L464.6,471z
	 M462.7,470.3l0.2-0.4l0.3,0.2l-0.2,0.3L462.7,470.3L462.7,470.3z M462.2,470.3l-0.1-0.3l0.3-0.2L462.2,470.3L462.2,470.3z
	 M466.5,472.5h0.6l0.5-0.2l0.6,0.7l-0.6,0.5L466.5,472.5L466.5,472.5z M462,476l-0.2-0.5l0.5-1.1l-0.1,0.6l0.3,0.6L462,476L462,476z
	 M461.4,475.7v-0.9l0.4-0.1l-0.1,0.7L461.4,475.7L461.4,475.7z M458.8,475.9l-1.2,0.1v-3.1L457,473l-0.2-1.4l1.5-2.9l0.3-1.6
	l1.9-0.7l3.6,0.7l1.5-1.3l-1.3,2l-3.8-0.3l-1.7,0.4l-0.1,1.6l1.2,0.7l2.6-1.2l0.7,0.3l-0.9,0.1l-0.8,1.2l-1.2,0.3l1.6,1.9l-0.3,0.5
	l0.9,0.9l-1.8,0.6l-0.2-1.2l-0.8-0.6v-1.4l-1.2,1.1L458.8,475.9L458.8,475.9z M444.6,469.7l-1.4-1.1l0.6-3.4l2.4,0.7l0.5-1.6
	l1.9-0.2l1.5-2.3l1.9-0.5l2.2-3.1l1.1,1.6l2.2,0.9l-1.8,0.7l-0.8,1.6l0.6,2l1.6,1.6h-1.5l-0.8,2.8l-1.4,0.9l0.5,0.8l-2.5,2.4
	l-0.4-0.9l-3.8,0.1l-0.1-0.9l-1.8,0.2L444.6,469.7L444.6,469.7z M477.8,476.6l-0.1-0.5l0.3-0.5l0.3,0.3l-0.1,1.1L477.8,476.6
	L477.8,476.6z M477.7,477.7v-0.7l0.4,0.5l-0.1,0.3L477.7,477.7L477.7,477.7z M473.9,479.2l-0.3-0.2v-0.4l0.6-0.6v0.7L473.9,479.2
	L473.9,479.2z M463.1,480.1l-0.3-0.4l0.8-0.2L463.1,480.1L463.1,480.1z M464,479.9l-0.2-0.2l0.3-0.1L464,479.9L464,479.9z
	 M464.5,479.7l0.2-0.2l0.6,0.1l-0.5,0.4L464.5,479.7L464.5,479.7z M466.2,479.2l0.2-0.4l0.9-0.2l0.1,0.3L466.2,479.2L466.2,479.2z
	 M462.8,482.7l-0.1,0.4h-0.4L462.8,482.7L462.8,482.7z M463.2,482.4v-1.1l1.9-0.8l0.2-0.5l2.7-0.4l-0.2,0.5l-2.7,1.2l-0.6,0.8
	L463.2,482.4L463.2,482.4z M457.9,480l1.1-0.6l1.3,0.6l0.7-0.2l0.5,0.2l0.7-0.7v0.8l-2.1,0.5l-1.8-0.1L457.9,480L457.9,480z
	 M456.9,481.3l1.4-0.2l1.3,0.8l-0.6,0.5l-0.8-0.8L456.9,481.3L456.9,481.3z M453.8,480.1l0.8-0.5l1.2,0.4l-0.6-0.7l1.6,0.3l0.3,0.5
	l-3.2,0.5L453.8,480.1L453.8,480.1z M452.7,480.5l0.5-0.9l0.5,0.1l-0.1,0.7L452.7,480.5L452.7,480.5z M450.8,479.5l0.4-0.3l1.1,0.1
	l-0.4,1.2L450.8,479.5L450.8,479.5z M448.5,477.8l0.8-0.1l1.3,0.1l-1.6,0.3L448.5,477.8L448.5,477.8z M438.5,477.4l0.8-1.1h1.6
	l2,1.4l2.3,0.3l0.6-0.9l2.2,0.6l0.3,0.8l2.3,0.3l0.1,1.6l-1.9-1.1l-1.9,0.3l-2.3-0.9h-2.4L438.5,477.4L438.5,477.4z M441.4,471.8
	h0.3l0.5,0.4v0.2l-0.8,0.2V471.8L441.4,471.8z M438,470.7l1.2-0.5l0.4,1.4l0.7,0.2l-0.3,0.7l-0.8-0.6l-0.3-0.9L438,470.7L438,470.7z
	 M436.9,468.6l0.4,0.2l-0.4,0.4V468.6L436.9,468.6z M433,465.2l0.5-0.1l-0.1,0.6L433,465.2L433,465.2z M429.6,469.2l0.3,1.5
	l-0.8-1.2L429.6,469.2L429.6,469.2z M427.1,466.2l0.4-0.3l0.5,0.8l0.3,1.3L427.1,466.2L427.1,466.2z M425.4,463.9l0.9,0.8l-1.1-0.3
	L425.4,463.9L425.4,463.9z M424.4,460.2l3.3,0.8l4,3.9l4.2,2.4l-0.3,1.8l3.7,3.5l-0.3,3.7l-1.8-0.1l-4.4-4.6l-1.1-2.2l-2-1.6v-2.2
	l-1.9-0.6l-0.5-1.7L424.4,460.2L424.4,460.2z M532.9,523l-0.3-1.1l-0.6-0.3l-1.6-2.9l0.6,0.7l1.1,0.2l1.2,2.2L532.9,523L532.9,523z
	 M533.2,530.8l0.7,0.4l2.3-3.3v-1.2l1.2-0.1l0.6-2.7l-1.7,0.9l-1.8-1.3l-0.5-1.4l-1.2,1.2l0.3,1.7l-1.8,2l2.3,1.6L533.2,530.8
	L533.2,530.8z M523.1,541.5l-0.6,1.3l1.1-0.3L523.1,541.5L523.1,541.5z M521.8,540l2-3.7l4.1-2.7l2-3.9l1.3,1.2l1.1,0.1l-0.5,2.1
	l-2.8,2.8l-1.3,4.3l-2.8,1.3L521.8,540L521.8,540z M480.7,521.2l1.4-0.6l0.3,0.4l0.7,0.2l-0.7,0.1l-0.2,0.2L480.7,521.2L480.7,521.2
	z M496.6,528.9l-0.2-0.8l0.8,0.4L496.6,528.9L496.6,528.9z M492,529.8l1.7,4.8l1.3,0.7l1.5-1.8l0.3-3.8l-2.2,0.8L492,529.8
	L492,529.8z M451.2,518.2v-1.1l0.7-0.3l0.2-2.5l-0.8-1.9l-0.2-0.6l-0.2-1.6l-1.1-2l-0.1-0.8l-1.2-1.5l1.2-0.2v-1.1l-0.9-1.6
	l-0.1-1.1l0.5-0.7l-0.2-1.1l0.5-1.5l0.2,1.4l0.4-1.2l3.1-1.7l1.4-0.1l1.9-1.1l0.7,0.1l2.2-0.7l0.7-1.6l0.7-0.5v-1.3l0.8-1.1l0.8,1.5
	l0.2-1.9l1.1,0.4l0.3-1.7l0.8-1.1h0.7l0.3-0.8l1.2-0.1l0.7,0.1l0.9,1.1l-0.1,0.9l0.3-0.5l0.3-0.3l0.9,0.1l0.4,0.5l0.1-0.7l-0.4-0.7
	l0.6-1.1l0.6-0.1v-1.1l1.2-0.6h1.7l0.3-0.5v-0.5l2.3,0.6l1.5,0.1l0.5-0.2l0.5,0.7l0.4-0.7l0.5,0.4l-1.7,3.9l1.3,1.3h1.1l1.2,0.9
	l1.3,0.6l1.2,1.2l1.2-0.1l1.1-2.9l0.2-0.8l-0.2-0.8v-1.3l0.2-0.8v-0.6l0.2-0.7l0.3-0.2l0.2-0.5l0.7-1.1h0.3l0.1,1.5l0.9,2.2l0.1,1.4
	l0.6,0.3l0.7-0.3l0.9,1.1l0.2,2.3l0.7,1.1l0.1,1.8l1.1,0.9l2.6,1.3l0.9,2.1l0.1,1.3l0.8-0.2l0.8,0.1v1.7l0.8,0.7l0.2,0.2l1.5,1.7
	l0.7,1.1v2.1l0.6,1.6l-0.6,4.4l-0.7,1.7l-1.8,2.4l-1.3,3.1l-0.9,4l-2.1,0.2l-1.9,1.5l-0.6,0.8l-1.2-0.9l-0.1-0.6l-0.6,0.1l-0.1-0.7
	l-1.4,1.3l-0.6,0.3l-4.4-1.6l-0.8-1.6l0.1-0.9l-0.8-1.7l-0.7,0.3h-0.7l0.4-1.1l-0.3-1.3l-0.6,1.5l-1.3,0.2l0.8-0.7V518l0.6-0.8v-1.5
	l-0.9,1.8l-1.1,0.7l-0.7,1.4l-0.6-0.3l-0.1-1.1l-1.7-2l0.3-0.4l-2.1-1.1l-0.5,0.2l-0.9-0.9h-3.3l-1.7,0.8L466,515l-2.4,1.2l-1.4,1.7
	l-2.8-0.4l-1.7,0.1l-0.5,0.8l-0.9,0.3l-0.8,0.7l-0.7,0.2l-2.1-0.2L451.2,518.2L451.2,518.2z M372.4,497.1l0.4-1.2l0.2,0.9
	L372.4,497.1L372.4,497.1z M369.1,497.7l1.1-0.1l0.1,0.9L369.1,497.7z"/>
</svg>
